<svg width="100" height="100" viewBox="0 0 100 100" fill="none" xmlns="http://www.w3.org/2000/svg">
<g clip-path="url(#clip0)">
<path d="M45.5404 67.9731H38.3491L38.3112 42.6816C38.3656 40.8172 38.0649 38.9593 37.4249 37.2063C36.9238 35.8789 35.9986 34.7521 34.7915 33.9991C37.5515 34.5347 39.305 35.6563 40.2799 37.0802C41.2548 38.5042 41.9321 41.1128 41.9321 44.8554V59.467C41.9321 61.9495 42.2739 63.7452 42.9703 64.8101C43.599 65.6594 44.5095 66.2598 45.5404 66.505C45.5404 60.891 45.5404 54.4515 45.5404 48.4091C45.4707 39.9786 46.0088 32.2664 43.4704 29.4563C42.3947 28.4054 41.0157 27.7158 39.5266 27.4841V29.179C37.3173 27.2321 39.2101 24.0061 42.0587 24.2896C45.4961 21.3408 51.2883 23.0295 53.7571 26.3689C55.7005 28.3851 56.2893 32.8083 56.2893 37.8678V66.5428C57.3204 66.2981 58.231 65.6976 58.8594 64.8479C59.5557 63.783 59.8975 61.9873 59.8975 59.5048V44.8995C59.8975 41.1191 60.385 38.5357 61.3725 37.0991C62.36 35.6626 64.1325 34.7741 66.7153 34.2323V34.3772C65.6388 35.0818 64.7797 36.0699 64.2338 37.2315C63.7464 38.4097 63.5185 40.2306 63.5185 42.7195L63.4742 67.9668H56.2323V78.6781H52.624C52.624 71.8039 52.624 35.2719 52.624 35.2719C52.3708 29.8343 51.3896 26.6902 47.5598 25.6569C46.0794 25.267 44.5077 25.4167 43.1285 26.079C47.9839 27.3392 49.1233 31.6174 49.117 40.1613L49.079 78.6781H45.534C45.534 76.1137 45.534 72.2576 45.534 67.9668" fill="#FABC68"/>
<path d="M74.0711 53.6891C77.5401 53.6891 80.3149 52.639 82.3955 50.5387C84.5351 48.4343 85.6049 44.49 85.6049 41.5475C85.6207 39.0046 84.6841 36.5471 82.9778 34.6544C82.194 33.7108 81.2133 32.9482 80.1038 32.4194C78.9943 31.8907 77.7826 31.6084 76.5526 31.5922C76.369 31.5922 76.2234 31.5607 76.0651 31.5607C70.0893 31.6111 67.0993 34.9716 67.0951 41.642L67.0444 67.9667C68.1586 67.9667 76.6349 68.0297 76.6665 67.9667C76.6982 67.9037 76.5399 67.0279 76.5146 67.0216C71.8808 66.4608 70.8996 64.0917 70.8173 60.5633L70.792 53.2418C71.8727 53.525 72.9852 53.6711 74.1027 53.6765L74.0711 53.6891ZM70.7287 42.3351C70.7287 39.966 71.1971 38.0947 72.1403 36.7526C74.147 34.0684 77.7807 34.352 79.857 36.6455C81.0482 37.9494 81.6897 39.6596 81.6485 41.4215C81.6485 43.4944 80.9331 46.7457 79.5025 48.3524C78.0718 49.9591 76.0778 50.7089 73.5203 50.7089C72.6033 50.6941 71.688 50.6247 70.7793 50.5009L70.7287 42.3351Z" fill="#FABC68"/>
<path d="M30.626 46.2983L30.588 40.4133C30.0753 36.1288 27.2076 34.4654 22.1117 35.1018C18.5921 35.5365 15.2877 39.1217 15.5029 38.3845C16.2435 35.902 16.5094 34.8056 17.402 33.7471C18.9402 31.9135 22.0484 31.6741 23.3651 31.6363C29.7778 31.3213 34.3482 34.4528 34.7597 41.3584V67.9541H30.6893V66.6058C29.0719 67.5801 27.2043 68.064 25.3149 67.9982C25.1566 67.9982 25.011 67.9982 24.8338 67.9982C23.6029 67.9854 22.3897 67.7053 21.2788 67.1775C20.1679 66.6497 19.1862 65.8869 18.4022 64.9423C16.6897 63.0384 15.7528 60.5668 15.7751 58.0115C15.7751 55.069 16.8449 51.1247 18.9846 49.0202C21.1242 46.9158 23.8399 45.8698 27.3089 45.8698C28.427 45.8738 29.5399 46.0221 30.6197 46.3109L30.626 46.2983ZM30.6197 49.0454C29.7111 48.9202 28.7958 48.8487 27.8787 48.8312C25.3465 48.8312 23.3272 49.6251 21.8965 51.1877C19.3644 54.0861 18.8516 59.9458 21.542 62.9009C23.6184 65.2007 27.2393 65.4842 29.2587 62.8001C30.1829 61.4832 30.645 59.6497 30.6703 57.3877V56.9529L30.6197 49.0454Z" fill="#FABC68"/>
<path fill-rule="evenodd" clip-rule="evenodd" d="M51.8835 22.4945C51.9342 22.3181 51.9848 22.1038 52.0481 21.8644C52.409 20.3836 52.1621 17.3274 50.8326 15.9662C51.3354 17.6456 51.3529 19.432 50.8833 21.1208C50.7611 21.6116 50.6002 22.092 50.4021 22.5575C50.8396 22.7353 51.2629 22.9459 51.6683 23.1877C52.0829 23.4256 52.4767 23.6975 52.8458 24.0006C52.8458 23.9565 52.8458 23.9123 52.8458 23.8934C52.9243 23.5283 53.0258 23.1684 53.1497 22.8159C53.6757 21.2044 54.6773 19.788 56.024 18.7515C55.0742 18.9805 54.1974 19.4433 53.474 20.0972C52.7506 20.7512 52.2037 21.5755 51.8835 22.4945Z" fill="#FABC68"/>
<path fill-rule="evenodd" clip-rule="evenodd" d="M47.2688 20.5285L47.1738 20.9444C46.7566 19.4288 45.7557 18.1381 44.3882 17.3526C45.3645 18.655 45.9585 20.2017 46.1039 21.8203C46.5254 21.7897 46.9486 21.7897 47.3701 21.8203C47.7119 21.8203 48.0538 21.8959 48.3957 21.9589C48.4334 21.4573 48.5139 20.9598 48.6363 20.4718C49.0668 18.7074 49.6619 17.006 50.8331 15.9537C49.0414 16.4641 47.598 19.1989 47.2688 20.5285Z" fill="#FABC68"/>
<path d="M9.65453 33.9929C9.57511 34.1377 9.50941 34.2896 9.45827 34.4466C9.40881 34.6114 9.37282 34.78 9.35064 34.9507C8.55294 34.9507 7.73625 34.9948 6.91323 35.0704L6.47639 35.1145C6.38143 35.3729 6.24848 35.7447 6.07754 36.2803C5.90661 36.8159 5.79265 37.2066 5.72301 37.4712C6.30968 37.988 7.05884 38.5866 7.9705 39.2672C7.90736 39.3613 7.85631 39.4629 7.81855 39.5696C7.79301 39.6776 7.77398 39.787 7.76158 39.8973C5.65126 37.9859 3.75197 36.3055 2.06372 34.8562L2.1207 34.6734C4.65308 34.4886 7.18546 34.2785 9.71784 34.0433L9.65453 33.9929ZM6.05222 35.2216H5.5774C5.33682 35.2216 4.5961 35.3036 3.36156 35.4296L5.41279 37.2003L5.50776 36.9041C5.56474 36.7466 5.61538 36.608 5.65337 36.4819L5.83064 35.9022L6.05222 35.1964" fill="#FABC68"/>
<path d="M9.85059 25.5183C10.3109 25.7171 10.7231 26.0118 11.0595 26.3824C11.3958 26.7531 11.6485 27.1911 11.8005 27.6671C12.0261 28.7096 11.8426 29.7985 11.2877 30.7107C11.2181 30.843 11.0978 31.0573 10.9332 31.3408C10.7686 31.6244 10.6483 31.8386 10.5723 31.971C10.5723 31.971 10.4647 32.1978 10.2178 32.6893C9.58469 32.3365 8.5844 31.8008 7.19159 31.0762C5.79878 30.3515 4.73518 29.8159 4.11475 29.5323C4.26036 29.2803 4.38698 29.0597 4.48194 28.9022C4.57691 28.7446 4.66554 28.5241 4.84914 28.1334C5.03273 27.7427 5.19734 27.415 5.33662 27.1504C5.64737 26.4369 6.15432 25.8252 6.79907 25.386C7.27843 25.144 7.81255 25.0296 8.34949 25.0539C8.88643 25.0782 9.40792 25.2403 9.86325 25.5246L9.85059 25.5183ZM9.58469 26.4761C8.87854 26.01 8.02114 25.8276 7.18526 25.9657C6.81725 26.1063 6.48198 26.3202 6.20001 26.5943C5.91804 26.8685 5.69533 27.1971 5.54554 27.56C5.29863 28.0389 5.07705 28.4989 4.91245 28.9274C5.73547 29.3748 6.54583 29.8033 7.34986 30.1877C8.43878 30.7548 9.41375 31.24 10.2684 31.6559C10.49 31.2967 10.6673 31.0258 10.8002 30.7422C11.8132 28.793 11.4122 27.3499 9.59735 26.4131" fill="#FABC68"/>
<path d="M13.8192 15.0715C14.5366 16.1931 15.8491 18.2135 17.7566 21.1329C17.663 21.2072 17.5781 21.2917 17.5034 21.3849C17.425 21.479 17.363 21.5855 17.3198 21.7C15.6423 21.0195 13.8192 20.3327 11.7302 19.6648L14.9523 24.6298C14.856 24.6984 14.7688 24.7789 14.6928 24.8693C14.6197 24.9647 14.5581 25.0683 14.5092 25.178C12.8506 24.5143 10.6118 23.6469 7.79272 22.5758C8.02968 22.3572 8.23239 22.1044 8.39411 21.826C10.3249 22.6577 12.2303 23.439 14.0914 24.151C13.0659 22.3994 11.9201 20.6708 10.654 18.9654C10.7398 18.8981 10.8182 18.8221 10.8882 18.7386C10.9589 18.653 11.0165 18.5574 11.0592 18.4551C12.9372 19.1986 14.8574 19.9042 16.8198 20.5721C15.7436 18.8919 14.5915 17.2306 13.3634 15.5882C13.4506 15.5225 13.5293 15.4463 13.5976 15.3614C13.6718 15.2735 13.7336 15.176 13.7812 15.0715" fill="#FABC68"/>
<path d="M22.9418 11.8961C23.2621 12.2499 23.5047 12.6663 23.6541 13.1188C23.8034 13.5713 23.8562 14.0498 23.8091 14.5238C23.7451 15.0086 23.5851 15.476 23.3384 15.8989C23.0917 16.3219 22.7633 16.6919 22.372 16.9876C21.6383 17.6624 20.6671 18.0224 19.6687 17.9896C19.1895 17.9444 18.7251 17.8 18.3053 17.5656C17.8855 17.3312 17.5197 17.012 17.2312 16.6284C16.9075 16.2752 16.6619 15.8582 16.5103 15.4044C16.3587 14.9507 16.3045 14.4703 16.3512 13.9944C16.4186 13.5084 16.582 13.0405 16.8319 12.6177C17.0818 12.1948 17.4133 11.8253 17.8074 11.5306C18.1701 11.1964 18.5958 10.9369 19.0597 10.7671C19.5237 10.5973 20.0168 10.5206 20.5107 10.5413C20.9896 10.5875 21.4536 10.7324 21.8732 10.9667C22.2928 11.201 22.6588 11.5197 22.9481 11.9024L22.9418 11.8961ZM22.1757 12.5325C21.6864 11.849 20.968 11.3619 20.1498 11.1588C19.7794 11.105 19.4016 11.1336 19.0436 11.2426C18.6857 11.3515 18.3564 11.5381 18.0796 11.7889C17.776 12.0121 17.5276 12.3011 17.3532 12.6342C17.1788 12.9672 17.0829 13.3354 17.073 13.7109C17.1228 14.5612 17.4725 15.3668 18.0606 15.9857C18.5529 16.6627 19.2748 17.1395 20.0928 17.3279C20.4623 17.3834 20.8396 17.3556 21.1968 17.2466C21.554 17.1375 21.8821 16.9499 22.1567 16.6978C22.4577 16.4789 22.705 16.1952 22.8804 15.8679C23.0558 15.5405 23.1547 15.178 23.1697 14.8073C23.1322 13.9634 22.788 13.1617 22.201 12.5514" fill="#FABC68"/>
<path d="M30.5826 11.3483C30.398 11.4232 30.2183 11.5095 30.0445 11.6067C29.8827 11.7047 29.7283 11.8142 29.5824 11.9344C28.81 11.6067 28.2085 11.3609 27.778 11.1971L26.0497 10.5669C25.9226 10.4993 25.7831 10.4577 25.6395 10.4447C25.496 10.4317 25.3513 10.4476 25.214 10.4913L25.8471 11.5185C26.3071 12.2998 26.7123 12.9426 27.0626 13.4467C26.9131 13.5003 26.769 13.5678 26.6321 13.6483C26.4992 13.7236 26.3759 13.8146 26.2649 13.9193C25.9357 13.2892 25.4546 12.4133 24.8088 11.3294C23.9183 9.82128 23.2366 8.72273 22.7639 8.03377C22.903 7.97727 23.0383 7.91202 23.1691 7.83843C23.3085 7.75618 23.4399 7.66126 23.5616 7.55486C23.7452 7.93925 24.0048 8.41816 24.3403 8.98529L25.1254 10.3023C25.1338 10.308 25.1437 10.311 25.1538 10.311C25.164 10.311 25.1739 10.308 25.1823 10.3023C25.4609 10.1384 25.8218 8.69122 26.2649 5.9606C26.4038 5.91074 26.5374 5.84742 26.6638 5.77156C26.7955 5.69395 26.9205 5.60541 27.0373 5.5069C26.9402 5.74215 26.7292 6.48572 26.4042 7.7376L25.8471 9.73516C26.5013 9.98721 28.0882 10.5249 30.608 11.3483" fill="#FABC68"/>
<path d="M37.4383 8.63894C37.2742 8.66846 37.1132 8.71275 36.9571 8.77127C36.7953 8.83006 36.6404 8.90612 36.495 8.99812C35.9885 8.36797 35.4504 7.76934 34.8806 7.1707L34.5767 6.85563C34.3171 6.94385 33.9436 7.08248 33.4118 7.27783C32.88 7.47317 32.5065 7.63071 32.2532 7.73783C32.2089 8.51921 32.2089 9.47703 32.2532 10.6113C32.1426 10.6172 32.0336 10.6406 31.9304 10.6806C31.8269 10.7222 31.7273 10.7728 31.6328 10.8318C31.8164 7.99619 31.962 5.45671 32.0507 3.21971L32.2279 3.15039C33.9415 5.00301 35.6846 6.83253 37.4573 8.63894H37.4383ZM34.2475 6.51535L33.9309 6.16247C33.7663 5.98603 33.2535 5.45041 32.3925 4.56191L32.2722 7.26522L32.5635 7.1581L32.994 7.00687L33.5511 6.78001L34.2475 6.51535Z" fill="#FABC68"/>
<path d="M41.2805 1.35476C40.685 1.4017 40.0943 1.49653 39.5142 1.63832L39.2293 1.70133C39.3243 2.24956 39.4762 2.96162 39.6851 3.90053C39.9573 5.0915 40.3182 6.42111 40.6664 7.92085C40.5146 7.93583 40.3642 7.96322 40.2169 8.00276C40.0604 8.03543 39.9061 8.07751 39.7548 8.12879C39.3707 6.32658 39.033 4.79534 38.7418 3.53505L38.3683 1.90298L38.1024 1.95969C37.4956 2.08668 36.9006 2.26373 36.3234 2.48901C36.3234 2.36929 36.3234 2.28107 36.2791 2.21175L36.1904 1.91558C36.9375 1.76435 37.7225 1.59421 38.5392 1.40517C39.3559 1.21612 40.2422 1.00818 41.1476 0.775024C41.1489 0.872786 41.1616 0.970061 41.1856 1.06489C41.2047 1.16311 41.2366 1.25843 41.2805 1.34845" fill="#FABC68"/>
<path d="M49.1808 1.131e-05C49.1808 0.863307 49.2378 1.47455 49.2631 1.82743V2.08579C49.3454 3.17593 49.3834 3.9258 49.377 4.348C49.3942 4.84372 49.3147 5.33805 49.1428 5.80363C48.9139 6.22685 48.5712 6.57831 48.153 6.8187C47.7348 7.05908 47.2577 7.1789 46.775 7.16474C46.3834 7.23009 45.9823 7.21341 45.5975 7.11576C45.2127 7.01811 44.8526 6.84163 44.5402 6.59761C43.9848 5.98718 43.6818 5.19037 43.6919 4.3669C43.6919 4.32279 43.6919 4.07704 43.6539 3.61073C43.6159 3.14443 43.6032 2.71593 43.5716 2.30003C43.5336 1.76441 43.4766 1.13427 43.4006 0.409604C43.5481 0.422495 43.6964 0.422495 43.8438 0.409604C44.0007 0.401425 44.1559 0.373909 44.306 0.327686L44.5339 3.96991C44.5553 4.35548 44.6061 4.73886 44.6858 5.11677C44.7609 5.4932 44.9383 5.84192 45.1986 6.125C45.432 6.32677 45.7034 6.48029 45.9969 6.57663C46.2905 6.67297 46.6004 6.71021 46.9085 6.68616C47.2167 6.66211 47.517 6.57727 47.7919 6.43657C48.0668 6.29588 48.3108 6.10214 48.5097 5.86664C48.724 5.52599 48.8421 5.13417 48.8516 4.73239C48.8703 4.20686 48.8555 3.68069 48.8073 3.15703C48.725 2.02907 48.6363 0.989336 48.535 0.00631288C48.64 0.0220289 48.7467 0.0220289 48.8516 0.00631288C48.964 0.00297662 49.0751 -0.018299 49.1808 -0.0567017" fill="#FABC68"/>
<path d="M56.4542 7.31598C56.2582 7.27018 56.0594 7.23651 55.8591 7.21516C55.6632 7.19958 55.4663 7.19958 55.2704 7.21516C54.8019 6.43378 54.4347 5.80364 54.1561 5.38144L53.1811 3.91321C53.1421 3.84453 53.0873 3.78594 53.0214 3.74216C52.9554 3.69838 52.88 3.67064 52.8013 3.66115H52.6114L52.4341 5.46966C52.4024 5.86035 52.3771 6.35816 52.3581 6.98201C52.209 6.93979 52.0565 6.91028 51.9023 6.89379C51.7421 6.88164 51.5813 6.88164 51.4211 6.89379C51.5351 6.12501 51.6554 5.00336 51.7757 3.49101C51.896 1.97867 51.9656 0.907426 51.9909 0.0693359L52.4468 0.126049L53.1685 0.163857C53.523 0.163857 53.8016 0.163857 54.0548 0.22057C55.5742 0.346599 56.3002 0.947335 56.2327 2.02278C56.2146 2.24674 56.1488 2.4643 56.0396 2.66097C55.9304 2.85763 55.7804 3.02889 55.5996 3.16334C55.1484 3.48928 54.6116 3.67756 54.0548 3.70526C54.4769 4.37321 55.2809 5.57259 56.4669 7.30338L56.4542 7.31598ZM55.34 2.06059C55.4075 1.16999 54.861 0.676374 53.7003 0.579752C53.4977 0.579752 53.2381 0.579752 52.9152 0.579752C52.8414 0.913852 52.7927 1.25297 52.7696 1.59428L52.624 3.35238L52.9532 3.39019C54.4473 3.51202 55.2345 3.09192 55.3147 2.1299" fill="#FABC68"/>
<path d="M63.8293 9.08021C63.6793 9.00636 63.5224 8.94726 63.3608 8.90377C63.1947 8.863 63.0252 8.83768 62.8543 8.82815C62.8037 8.03417 62.7151 7.22759 62.6011 6.4084L62.5315 5.97991C62.2719 5.89799 61.8984 5.78456 61.3412 5.64593C60.7841 5.5073 60.3979 5.41278 60.1257 5.35607C59.6382 5.98621 59.0811 6.74238 58.4417 7.6876C58.348 7.62785 58.2454 7.58319 58.1378 7.55527C58.0272 7.53235 57.915 7.51761 57.8022 7.51116C59.6087 5.30565 61.1999 3.3165 62.5758 1.5437L62.7594 1.59411C63.0506 4.08948 63.4072 6.58485 63.8293 9.08021ZM62.4492 5.501L62.3985 5.02839C62.3647 4.78894 62.2571 4.05797 62.0756 2.83549L60.4043 4.97168L60.7018 5.0473L61.1387 5.17333L61.7274 5.31196L62.4492 5.501Z" fill="#FABC68"/>
<path d="M75.7049 9.11134C75.5764 9.36957 75.3852 9.59181 75.1486 9.75795C74.9121 9.92409 74.6376 10.0289 74.3501 10.0629C73.622 10.1026 72.8999 9.91297 72.2862 9.52094C72.0266 9.376 71.8051 9.24367 71.6531 9.13025L70.9567 10.3905C70.6971 10.8505 70.4312 11.3484 70.1653 11.8903C70.0557 11.8016 69.9392 11.7216 69.8171 11.6508C69.6686 11.5718 69.5141 11.5043 69.355 11.4492C69.9311 10.5103 70.5072 9.52094 71.0833 8.4938C71.6594 7.46667 72.2229 6.42063 72.704 5.46912C72.8687 5.58254 73.0079 5.67076 73.1219 5.73378C73.2612 5.81569 73.5017 5.93542 73.8373 6.09296C74.1728 6.25049 74.4387 6.38913 74.6287 6.48995C75.1618 6.74308 75.5943 7.16686 75.8569 7.69352C75.9495 7.92198 75.9863 8.16907 75.9643 8.41446C75.9423 8.65985 75.8621 8.89653 75.7302 9.10504L75.7049 9.11134ZM74.8629 8.72065C74.988 8.54769 75.0669 8.34598 75.0924 8.1344C75.1178 7.92281 75.089 7.70825 75.0085 7.51078C74.7432 7.06963 74.3505 6.71828 73.8816 6.50255C73.7107 6.40803 73.5207 6.31351 73.3182 6.22529C72.9383 6.85543 72.5838 7.43516 72.2609 8.01489L71.8177 8.80257L72.2039 9.04203C73.4701 9.74359 74.3564 9.63646 74.8629 8.72065Z" fill="#FABC68"/>
<path d="M81.8834 15.9227C81.602 16.3077 81.2424 16.6296 80.8279 16.8673C80.4135 17.105 79.9534 17.2534 79.4777 17.3027C78.9877 17.3377 78.4955 17.2761 78.0295 17.1215C77.5634 16.9668 77.1326 16.7222 76.7617 16.4016C75.9527 15.83 75.4006 14.966 75.2233 13.9945C75.1725 13.5189 75.2217 13.038 75.3677 12.5824C75.5138 12.1267 75.7535 11.7063 76.0716 11.3479C76.3527 10.9595 76.7127 10.6342 77.1283 10.3932C77.5438 10.1522 78.0056 10.0009 78.4837 9.94897C78.9761 9.91504 79.4703 9.9789 79.9377 10.1368C80.405 10.2948 80.8362 10.5437 81.206 10.869C81.6083 11.1543 81.9497 11.5162 82.2105 11.9337C82.4713 12.3512 82.6463 12.816 82.7254 13.3013C82.7771 13.7779 82.7284 14.26 82.5823 14.7168C82.4363 15.1736 82.1961 15.5951 81.8771 15.9542L81.8834 15.9227ZM81.1047 15.3241C81.679 14.699 82.0092 13.8897 82.0354 13.043C82.0104 12.669 81.902 12.3052 81.718 11.9782C81.5341 11.6512 81.2791 11.3691 80.9718 11.1525C80.6902 10.9028 80.3551 10.7202 79.992 10.6187C79.6289 10.5171 79.2473 10.4993 78.8762 10.5665C78.0503 10.7858 77.3285 11.2878 76.8377 11.9843C76.2733 12.6036 75.9519 13.4044 75.9323 14.2402C75.9546 14.6149 76.0618 14.9796 76.246 15.307C76.4302 15.6345 76.6866 15.9161 76.9959 16.1307C77.2727 16.3856 77.6039 16.5747 77.9647 16.6838C78.3254 16.793 78.7064 16.8193 79.0788 16.7608C79.9012 16.5487 80.62 16.0501 81.1047 15.3556" fill="#FABC68"/>
<path d="M83.2249 22.4316L81.6675 20.6924C81.351 20.3521 81.0344 20.0623 80.7559 19.7535C81.7984 18.8629 82.6594 18.1109 83.3389 17.4976C84.0986 16.8044 84.9301 16.0146 85.8333 15.1282C85.9178 15.2614 86.0154 15.3859 86.1245 15.5C86.2269 15.6168 86.3415 15.7224 86.4664 15.8151C85.2002 16.88 84.2949 17.6551 83.7631 18.1466C83.2313 18.6381 82.5538 19.2746 81.7182 20.1001L82.174 20.6105C82.6281 21.1279 83.1352 21.5967 83.6871 22.0094L83.5731 22.1102L83.4528 22.1858L83.3452 22.2993C83.3009 22.3434 83.2566 22.3749 83.2313 22.4064" fill="#FABC68"/>
<path d="M88.1628 25.733C87.9284 25.9103 87.6581 26.0348 87.3706 26.0979C87.0832 26.161 86.7853 26.1612 86.4978 26.0985C85.8809 25.9435 85.3479 25.5575 85.01 25.0209C84.6405 24.5389 84.4504 23.9443 84.4719 23.3384C84.8232 23.2411 85.1596 23.097 85.4721 22.9099C85.2463 23.2027 85.1238 23.5616 85.1238 23.9308C85.1238 24.2999 85.2463 24.6588 85.4721 24.9516C85.5751 25.1136 85.7102 25.253 85.8691 25.3614C86.0281 25.4697 86.2075 25.5447 86.3965 25.5817C86.5927 25.6109 86.7928 25.5996 86.9845 25.5487C87.1761 25.4977 87.3552 25.4082 87.5107 25.2856C87.7459 25.1412 87.9211 24.9176 88.0045 24.6554C88.0594 24.3539 88.0464 24.044 87.9665 23.748L87.7766 22.891C87.6657 22.5864 87.639 22.2578 87.6993 21.9394C87.7597 21.621 87.9048 21.3246 88.1196 21.0812C88.3344 20.8377 88.611 20.6562 88.9204 20.5556C89.2298 20.4549 89.5607 20.4389 89.8785 20.5091C90.4256 20.6386 90.9003 20.9754 91.2017 21.448C91.511 21.8816 91.7108 22.3831 91.7841 22.9099C91.5115 22.9537 91.2441 23.0255 90.9864 23.1242C91.0932 22.8681 91.1329 22.5893 91.1019 22.3137C91.0709 22.0382 90.9702 21.775 90.8091 21.5488C90.7218 21.4136 90.6077 21.2975 90.4738 21.2076C90.3399 21.1177 90.1891 21.0558 90.0304 21.0258C89.8653 21.0044 89.6975 21.0157 89.5367 21.0589C89.3759 21.1022 89.2253 21.1766 89.0935 21.2779C88.8742 21.4609 88.7166 21.7064 88.6419 21.9813C88.5672 22.2562 88.5789 22.5473 88.6756 22.8154L88.8592 23.6787C88.9664 24.092 88.9664 24.5257 88.8592 24.939C88.7388 25.2935 88.4996 25.5961 88.1818 25.796" fill="#FABC68"/>
<path d="M89.7831 32.9476C89.7228 32.7588 89.6466 32.5754 89.5552 32.3994C89.4662 32.2324 89.3646 32.0723 89.2513 31.9205C89.6249 31.1706 89.8844 30.5909 90.0997 30.1687L90.8277 28.4862C90.9031 28.3604 90.952 28.2208 90.9716 28.0756C90.9912 27.9305 90.981 27.7829 90.9417 27.6418L89.8781 28.1901C89.0614 28.606 88.3967 28.9714 87.8712 29.2865C87.8267 29.135 87.7695 28.9874 87.7003 28.8454C87.6285 28.7114 87.5437 28.5848 87.447 28.4673C88.0801 28.1775 88.9981 27.749 90.125 27.1692C91.6824 26.3626 92.8283 25.7514 93.5817 25.3355C93.6301 25.4754 93.6872 25.6122 93.7526 25.7451C93.8277 25.888 93.9167 26.023 94.0185 26.1484C93.6134 26.3122 93.1259 26.5391 92.5371 26.8416L91.1696 27.5473C91.1652 27.5561 91.1628 27.5658 91.1628 27.5757C91.1628 27.5855 91.1652 27.5952 91.1696 27.604C91.3216 27.8855 92.7524 28.3266 95.462 28.9273C95.5075 29.0704 95.5647 29.2094 95.6329 29.3432C95.7019 29.4774 95.7846 29.6041 95.8798 29.7213C95.6456 29.6142 94.9112 29.3621 93.6767 28.9588L91.7014 28.3287C91.4102 28.9672 90.7771 30.5132 89.8021 32.9665" fill="#FABC68"/>
<path d="M92.0685 39.828C92.0483 39.6637 92.0144 39.5014 91.9672 39.3428C91.9113 39.1805 91.8436 39.0226 91.7646 38.8702C92.3977 38.4039 93.0308 37.906 93.6639 37.3704L93.9931 37.0869C93.9234 36.8222 93.8032 36.4567 93.6385 35.9022C93.4739 35.3477 93.3347 34.9822 93.2397 34.7238C92.461 34.6419 91.4987 34.5852 90.3591 34.5537C90.3593 34.4405 90.3422 34.3278 90.3085 34.2197C90.2713 34.1149 90.2247 34.0136 90.1692 33.9172C93.0055 34.2617 95.5378 34.5411 97.7663 34.7553L97.8233 34.9381C95.8734 36.5386 93.9361 38.1707 92.0305 39.828H92.0685ZM94.335 36.7592L94.7085 36.463C94.8984 36.3118 95.4619 35.8329 96.4052 35.02L93.6955 34.7553L93.7905 35.0515C93.8348 35.209 93.8791 35.354 93.9171 35.48C93.9551 35.606 94.0121 35.7699 94.1134 36.0534L94.335 36.7592Z" fill="#FABC68"/>
<path d="M5.79897 59.6502C5.51599 59.7082 5.22301 59.6961 4.94587 59.6147C4.66873 59.5334 4.41597 59.3854 4.2099 59.1839C3.72442 58.6367 3.42526 57.9508 3.35523 57.2241C3.31091 56.9342 3.27292 56.6822 3.25393 56.4679L1.82947 56.6948C1.31033 56.783 0.753206 56.8901 0.158096 57.0162C0.167468 56.8756 0.167468 56.7345 0.158096 56.594C0.127563 56.4288 0.0830891 56.2665 0.0251465 56.1088C1.12673 55.9701 2.25997 55.8126 3.4312 55.6236C4.60242 55.4345 5.77365 55.2266 6.81826 54.9934C6.81826 55.1888 6.84991 55.3526 6.8689 55.4849C6.8879 55.6172 6.95121 55.9071 7.03351 56.2663C7.11581 56.6255 7.17279 56.8964 7.20444 57.1296C7.33866 57.7058 7.27168 58.3103 7.01451 58.8436C6.89255 59.0584 6.72103 59.2413 6.51408 59.3771C6.30714 59.513 6.07071 59.5979 5.8243 59.625L5.79897 59.6502ZM5.59005 58.7302C5.80262 58.718 6.00896 58.6542 6.19105 58.5443C6.37315 58.4345 6.52545 58.2819 6.63466 58.1C6.81824 57.6168 6.85133 57.0898 6.72962 56.5877C6.70008 56.3986 6.65576 56.1886 6.59667 55.9575C5.87494 56.0394 5.18487 56.1277 4.53278 56.2348L3.63379 56.3797C3.63379 56.5751 3.67177 56.7263 3.69077 56.8271C3.91868 58.2449 4.55178 58.8751 5.59005 58.7176" fill="#FABC68"/>
<path d="M2.69707 67.3751C2.66855 67.175 2.62624 66.9771 2.57045 66.7828C2.51021 66.5969 2.43615 66.4158 2.34887 66.2409C2.93764 65.5099 3.37448 64.9428 3.65937 64.5332L4.69132 63.0838C4.74146 63.022 4.77619 62.9492 4.7927 62.8715C4.8092 62.7937 4.807 62.7132 4.78628 62.6364L4.71031 62.46L2.95031 62.9956C2.57678 63.1091 2.09563 63.2729 1.50685 63.4808C1.49256 63.327 1.46287 63.1751 1.41822 63.0271C1.36925 62.8774 1.30784 62.7319 1.23462 62.5923C1.99433 62.4117 3.09592 62.1008 4.53937 61.6597C5.93218 61.2375 7.02744 60.8847 7.81247 60.5948C7.87578 60.8405 7.91377 60.9918 7.93276 61.0422L8.16068 61.7227C8.28096 62.0567 8.3696 62.3529 8.43924 62.5608C8.87607 63.9976 8.57852 64.8734 7.53391 65.1885C7.32418 65.2523 7.1035 65.2723 6.88565 65.2474C6.66779 65.2224 6.45744 65.1531 6.26772 65.0436C5.79385 64.7362 5.41994 64.2983 5.19146 63.7833C4.72719 64.4218 3.90417 65.6086 2.72239 67.3436L2.69707 67.3751ZM7.17938 64.4008C8.04461 64.1362 8.3084 63.4556 7.97075 62.3592C7.91377 62.1638 7.83147 61.9181 7.71751 61.6156C7.37928 61.6741 7.04517 61.7541 6.71722 61.8551L5.02053 62.3718C5.04324 62.4807 5.07285 62.588 5.10916 62.6932C5.53122 64.1173 6.2213 64.6865 7.17938 64.4008Z" fill="#FABC68"/>
<path d="M5.81792 74.1673C5.77853 74.0069 5.7234 73.8507 5.65331 73.701C5.57458 73.5483 5.48575 73.4009 5.38741 73.2599C5.96353 72.7117 6.53332 72.1319 7.08411 71.5144L7.37533 71.1867C7.2677 70.9347 7.09677 70.5566 6.86252 70.0651C6.62828 69.5736 6.43835 69.1892 6.3054 68.9497C5.52036 68.9497 4.56439 69.0442 3.43115 69.1703C3.41478 69.0592 3.38281 68.9511 3.33619 68.8489C3.28396 68.7489 3.2225 68.654 3.15259 68.5653C6.01418 68.5233 8.56977 68.4582 10.8194 68.37L10.8953 68.5464C9.18176 70.3949 7.49351 72.2685 5.83058 74.1673H5.81792ZM7.72986 70.8149L8.05274 70.4747C8.22368 70.2982 8.71749 69.7437 9.54052 68.8174L6.81821 68.9182C6.81821 68.9182 6.88152 69.0442 6.95116 69.1955L7.14109 69.6051C7.17907 69.6996 7.27404 69.876 7.40699 70.147C7.53994 70.418 7.64123 70.6448 7.72986 70.8149Z" fill="#FABC68"/>
<path d="M17.1435 78.6474C15.8773 79.017 13.556 79.7018 10.1795 80.7016C10.1373 80.5912 10.0797 80.4873 10.0085 80.3929C9.94112 80.2919 9.85774 80.2026 9.76161 80.1282C10.8843 78.7419 12.0703 77.1623 13.3196 75.3895L7.62175 77.072C7.5832 76.9605 7.52998 76.8545 7.46348 76.7569C7.39399 76.6615 7.31322 76.5748 7.2229 76.4986C8.32449 75.0996 9.78905 73.2092 11.6166 70.8273C11.6874 70.9723 11.77 71.1114 11.8635 71.2432C11.9544 71.3769 12.0583 71.5014 12.1737 71.615C10.8273 73.2281 9.54425 74.8308 8.32449 76.423C10.2955 75.8978 12.275 75.2845 14.2629 74.5829C14.2984 74.6848 14.3497 74.7804 14.4149 74.8665C14.4771 74.96 14.5516 75.0447 14.6364 75.1186C13.3703 76.7023 12.1505 78.3365 10.9772 80.0211C12.9229 79.4707 14.8475 78.8406 16.751 78.1306C16.7916 78.2301 16.8425 78.3252 16.9029 78.4142C16.9695 78.51 17.0482 78.5969 17.1372 78.6726" fill="#FABC68"/>
<path d="M20.4539 86.3846C20.1392 86.7473 19.7508 87.0393 19.3142 87.2414C18.8776 87.4434 18.4029 87.5509 17.9215 87.5567C17.4342 87.5531 16.9524 87.4539 16.5038 87.2646C16.0551 87.0754 15.6483 86.7999 15.3068 86.4539C14.9287 86.1363 14.6176 85.7472 14.3916 85.3091C14.1656 84.8711 14.0291 84.3927 13.99 83.9018C14.0063 82.9394 14.3837 82.0179 15.0479 81.3183C15.7121 80.6187 16.6152 80.1916 17.5796 80.121C18.0729 80.1302 18.5594 80.2363 19.0113 80.4331C19.4633 80.6299 19.8717 80.9136 20.2133 81.2678C20.5897 81.5865 20.8993 81.9759 21.1242 82.4138C21.3491 82.8518 21.4849 83.3296 21.5238 83.8199C21.5336 84.2988 21.4436 84.7745 21.2595 85.217C21.0753 85.6595 20.801 86.0592 20.4539 86.3909V86.3846ZM19.7322 85.704C20.3593 85.1308 20.7591 84.3528 20.8591 83.5111C20.8294 82.7629 20.5041 82.0565 19.9541 81.5456C19.404 81.0346 18.6736 80.7605 17.9215 80.7826C17.0737 80.9324 16.3078 81.3795 15.7627 82.0429C15.1503 82.6129 14.762 83.3814 14.6674 84.2106C14.6632 84.5836 14.7423 84.9528 14.8988 85.2917C15.0554 85.6306 15.2855 85.9307 15.5727 86.1703C15.8335 86.4427 16.1532 86.6524 16.5075 86.7834C16.8618 86.9144 17.2415 86.9634 17.6176 86.9265C18.4564 86.7871 19.2164 86.3508 19.7575 85.6977" fill="#FABC68"/>
<path d="M31.0636 92.8113C30.8541 93.239 30.5573 93.6185 30.1921 93.9255C29.8269 94.2326 29.4014 94.4605 28.9428 94.5946C28.4668 94.7182 27.9708 94.7462 27.4839 94.677C26.9969 94.6078 26.5287 94.4426 26.1065 94.1913C25.658 93.9822 25.2554 93.6869 24.9219 93.3225C24.5883 92.9581 24.3304 92.5317 24.1629 92.0677C23.9368 91.1365 24.0653 90.1548 24.5236 89.3123C24.9819 88.4698 25.7375 87.8261 26.6446 87.5055C27.1228 87.3842 27.6206 87.359 28.1087 87.4315C28.5968 87.504 29.0654 87.6727 29.4872 87.9277C29.9287 88.1398 30.3237 88.4365 30.6496 88.801C30.9756 89.1654 31.226 89.5903 31.3865 90.0513C31.5226 90.5107 31.5613 90.9932 31.5003 91.4683C31.4393 91.9434 31.2798 92.4007 31.032 92.8113H31.0636ZM30.152 92.3324C30.6075 91.6172 30.7895 90.7629 30.6648 89.9252C30.5721 89.563 30.3996 89.2258 30.1598 88.938C29.92 88.6503 29.6189 88.4193 29.2783 88.2617C28.9573 88.0648 28.5953 87.9436 28.22 87.9076C27.8446 87.8715 27.466 87.9215 27.1131 88.0537C26.3371 88.4167 25.7157 89.0419 25.3594 89.8181C24.9143 90.5255 24.7412 91.3693 24.872 92.1938C25.0957 92.9088 25.5927 93.5076 26.2559 93.8612C26.9191 94.2149 27.6953 94.2949 28.4173 94.0842C29.1868 93.7278 29.8023 93.1084 30.152 92.3387" fill="#FABC68"/>
<path d="M32.6331 95.9429C32.4605 96.5184 32.0909 97.0155 31.5885 97.3481C31.0463 97.5825 30.4343 97.6006 29.8792 97.3985L29.9235 97.1023C30.1351 97.1814 30.3641 97.2027 30.5868 97.1639C30.8094 97.1251 31.0176 97.0277 31.1897 96.8818C31.5586 96.4347 31.838 95.9213 32.0127 95.3694C33.0193 92.7669 33.6651 91.0152 33.912 90.1266C34.0312 90.1919 34.1537 90.2508 34.2792 90.3031C34.4336 90.3616 34.5923 90.4079 34.754 90.4417C34.5007 91.0215 34.1779 91.8091 33.7917 92.8048C33.5258 93.4916 33.2662 94.1911 33.0066 94.8842C32.7471 95.5774 32.6268 95.9366 32.6205 95.9429" fill="#FABC68"/>
<path d="M41.5781 92.8109C41.4014 93.0864 41.265 93.3856 41.173 93.6994C41.0547 93.3156 40.8357 92.9703 40.5385 92.6989C40.2414 92.4275 39.8769 92.2399 39.4826 92.1555C39.1303 92.0424 38.7566 92.0108 38.3902 92.0632C38.0237 92.1156 37.6741 92.2507 37.3681 92.458C36.7142 92.9901 36.2666 93.7319 36.1019 94.5564C35.8395 95.3471 35.8687 96.2049 36.1842 96.9761C36.3348 97.3021 36.5597 97.5886 36.841 97.8128C37.1224 98.0371 37.4524 98.1929 37.8049 98.2679C38.5889 98.4641 39.4175 98.3747 40.141 98.0159L39.9131 98.646C39.1543 98.8773 38.3418 98.8663 37.5897 98.6145C37.1241 98.5211 36.6826 98.3343 36.2918 98.0657C35.9011 97.797 35.5694 97.452 35.3168 97.0517C35.0971 96.6283 34.9654 96.165 34.9295 95.6898C34.8936 95.2145 34.9543 94.7368 35.1079 94.2854C35.2083 93.8173 35.4068 93.3755 35.6905 92.989C35.9741 92.6024 36.3365 92.2798 36.754 92.0421C37.1941 91.814 37.6752 91.6749 38.1696 91.6327C38.664 91.5905 39.1619 91.6461 39.6345 91.7964C40.3615 91.9801 41.0356 92.3296 41.6035 92.8172" fill="#FABC68"/>
<path d="M48.0733 93.2015C46.174 95.199 44.49 97.1399 43.0085 99.0303C43.5403 99.0996 43.9392 99.15 44.2051 99.1752C45.1631 99.2845 46.1761 99.3538 47.2439 99.3832C47.2439 99.4504 47.2313 99.5512 47.2059 99.6856C47.1995 99.7906 47.1995 99.8958 47.2059 100.001C45.7625 99.818 44.6736 99.6919 44.0405 99.6163C43.1963 99.5281 42.386 99.4525 41.6094 99.3895C43.4116 97.3604 45.0766 95.4049 46.6045 93.5229C46.4336 93.5229 46.1677 93.4598 45.8068 93.422C44.9078 93.3275 43.9075 93.2582 42.7933 93.2078C42.7933 93.0755 42.8376 92.9809 42.8439 92.9242C42.8502 92.8675 42.8439 92.7541 42.8439 92.6281C44.0215 92.7856 44.9015 92.8927 45.4966 92.9557C46.0917 93.0187 46.9654 93.1007 48.1429 93.2015" fill="#FABC68"/>
<path d="M54.435 93.0062C53.6437 94.3988 52.9283 95.7221 52.3015 96.9698C52.3015 97.4424 52.3015 97.7952 52.3015 98.0347C52.3015 98.6648 52.3711 99.295 52.4408 99.9251C52.2885 99.8968 52.1334 99.8863 51.9786 99.8936C51.8206 99.898 51.6636 99.9191 51.5101 99.9566C51.5101 99.4084 51.5101 98.9295 51.5101 98.5262C51.5101 98.1229 51.4531 97.6566 51.4025 97.1525C50.4191 95.6149 49.575 94.3001 48.8701 93.2078C49.0556 93.2212 49.2418 93.2212 49.4272 93.2078C49.6123 93.2022 49.7965 93.1811 49.978 93.1448C50.5493 94.3134 51.2274 95.4272 52.0039 96.4719C52.6473 95.3648 53.2142 94.2152 53.7006 93.0314C53.8246 93.0477 53.9502 93.0477 54.0742 93.0314C54.2003 93.0296 54.3257 93.0127 54.4477 92.981" fill="#FABC68"/>
<path d="M60.6261 91.9223C59.3599 94.3736 58.3153 96.7114 57.4099 98.9548C57.9417 98.8665 58.3406 98.8035 58.6002 98.7531C59.5498 98.583 60.5374 98.3624 61.5757 98.0915C61.5757 98.1608 61.5757 98.2616 61.62 98.3939C61.6359 98.4978 61.6571 98.6009 61.6833 98.7027C60.2525 98.9359 59.1953 99.1186 58.5178 99.2383C57.7075 99.3896 56.9035 99.5408 56.1248 99.7046C57.2728 97.2513 58.311 94.905 59.2396 92.6659L58.4419 92.7983C57.5492 92.9621 56.5426 93.1763 55.4917 93.4284C55.4917 93.2961 55.4917 93.2015 55.4537 93.1385C55.4373 93.0445 55.414 92.9519 55.384 92.8613C56.5489 92.6722 57.4289 92.5273 58.0177 92.4202C58.6065 92.313 59.4675 92.1429 60.6261 91.9034" fill="#FABC68"/>
<path d="M67.083 89.7486C67.5389 91.2042 68.039 92.6914 68.5708 94.21C68.7607 94.7519 69.0203 95.4703 69.3495 96.3525L69.2292 96.3966C68.4611 95.9261 67.33 95.3086 65.8358 94.544L62.6704 92.9371C62.854 93.4979 62.9932 93.9138 63.0945 94.1974C63.4364 95.1594 63.9007 96.4029 64.4874 97.9279C64.3712 97.9343 64.2563 97.9555 64.1455 97.9909C64.0381 98.0334 63.9361 98.0884 63.8416 98.1547C63.3225 96.4218 62.702 94.544 61.993 92.5275L61.6384 91.5256L61.8157 91.4626C63.6854 92.5254 65.8274 93.6387 68.2416 94.8023C68.1023 94.3738 68.0137 94.0903 67.9694 93.9643C67.4186 92.4204 66.9248 91.0908 66.4689 89.9692C66.5761 89.9571 66.682 89.936 66.7855 89.9061C66.8841 89.8653 66.9794 89.8169 67.0704 89.7612" fill="#FABC68"/>
<path d="M76.0215 92.8427C75.8643 92.8924 75.7117 92.9556 75.5656 93.0318C75.4142 93.1113 75.2701 93.2041 75.1351 93.3091C74.559 92.7608 73.9513 92.2189 73.3118 91.6959L72.97 91.4186C72.7231 91.532 72.3369 91.7211 71.862 91.9731C71.3872 92.2252 71.0074 92.4331 70.7668 92.6033C70.8238 93.3847 70.9377 94.3299 71.1023 95.4515C70.9922 95.4752 70.8858 95.5133 70.7858 95.565C70.6885 95.6182 70.5973 95.6815 70.5136 95.754C70.3489 92.91 70.1801 90.3726 70.0071 88.1419L70.1717 88.0536C72.1047 89.692 74.0547 91.2989 76.0215 92.8743V92.8427ZM72.5838 91.154L72.2292 90.8389C72.0456 90.6814 71.4695 90.2087 70.5072 89.4337L70.7161 92.1307L70.9884 91.9857L71.3936 91.7904L71.9254 91.5005L72.5584 91.154" fill="#FABC68"/>
<path d="M85.4158 85.5213C85.2765 85.6083 85.1451 85.7074 85.0233 85.8174C84.9044 85.9173 84.7961 86.0293 84.7004 86.1514C84.1876 85.4835 83.5419 84.7084 82.8011 83.8451L82.4783 83.4985C81.9465 83.9186 81.421 84.366 80.9019 84.8407C80.3827 85.3007 79.8699 85.7607 79.3634 86.2396L79.6736 86.5925C80.7668 87.8276 81.4442 88.5648 81.7059 88.8043C81.5669 88.8895 81.4356 88.9865 81.3134 89.0942C81.1979 89.1957 81.0919 89.3075 80.9968 89.4281C80.4334 88.7098 79.642 87.7709 78.6101 86.6051C77.5781 85.4393 76.9323 84.7147 76.4575 84.2862C76.5908 84.2009 76.7178 84.1061 76.8374 84.0026C76.9563 83.9027 77.0645 83.7908 77.1603 83.6686C77.3439 83.9396 77.8947 84.5887 78.8063 85.6158L79.0659 85.9057C79.4204 85.6095 79.9396 85.1495 80.636 84.5445C81.3324 83.9396 81.8452 83.4796 82.187 83.1645L81.9338 82.8684C81.3007 82.15 80.7056 81.5388 80.1675 81.022C80.3032 80.9374 80.4323 80.8426 80.5537 80.7385C80.6734 80.6328 80.7836 80.5169 80.8829 80.3919C81.4843 81.1418 82.1491 81.9484 82.9278 82.8054C83.7065 83.6623 84.4599 84.4878 85.4601 85.5213" fill="#FABC68"/>
<path d="M88.929 76.0634C89.3156 76.3443 89.6391 76.7023 89.8789 77.1146C90.1187 77.5269 90.2695 77.9844 90.3218 78.4579C90.3429 79.4399 90.0203 80.3987 89.4093 81.1701C88.7984 81.9414 87.937 82.4774 86.9727 82.6862C86.011 82.7468 85.0611 82.4486 84.3084 81.8497C83.5558 81.2509 83.0543 80.3943 82.9019 79.4473C82.8829 78.4646 83.2079 77.5059 83.8213 76.7356C84.4346 75.9653 85.2981 75.4313 86.2636 75.2253C86.7421 75.1726 87.2262 75.2199 87.6852 75.3642C88.1442 75.5085 88.5678 75.7467 88.929 76.0634ZM88.2959 76.8385C87.6716 76.264 86.8602 75.9329 86.0104 75.9058C85.2623 75.9989 84.5814 76.382 84.1155 76.972C83.6496 77.562 83.4365 78.3111 83.5223 79.0566C83.7459 79.8805 84.2549 80.5992 84.9595 81.0856C85.5803 81.6455 86.3822 81.9652 87.2196 81.9867C87.5959 81.9612 87.9617 81.8523 88.2903 81.6681C88.6189 81.4838 88.902 81.2289 89.1189 80.9218C89.3694 80.6435 89.5536 80.3126 89.6577 79.9536C89.7619 79.5947 89.7833 79.2169 89.7203 78.8486C89.5084 78.0311 89.0071 77.3173 88.3085 76.8385" fill="#FABC68"/>
<path d="M89.4858 67.9793C90.8027 68.7523 92.1744 69.5232 93.6009 70.292C94.1011 70.5629 94.7722 70.9221 95.6205 71.3632L95.5572 71.4766C94.6624 71.6363 93.3962 71.9324 91.7586 72.3651L88.3399 73.2788L89.4921 73.909C90.3911 74.4005 91.5729 75.0138 93.0375 75.749C92.9581 75.8314 92.888 75.9223 92.8286 76.02C92.7771 76.1241 92.7389 76.2341 92.7146 76.3476C91.1572 75.4087 89.4415 74.4572 87.5486 73.4112L86.6116 72.9008L86.7002 72.7369C88.8105 72.279 91.1509 71.6741 93.7212 70.9221L92.9489 70.481C91.5054 69.7038 90.2392 69.0506 89.1503 68.5213C89.2227 68.4399 89.2864 68.3512 89.3402 68.2566C89.3847 68.1626 89.4227 68.0658 89.4542 67.9667" fill="#FABC68"/>
<path d="M95.5568 61.1997C96.0164 61.3334 96.4432 61.5602 96.8103 61.866C97.1775 62.1719 97.4771 62.55 97.6903 62.9767C97.8915 63.4228 98.0024 63.9039 98.0165 64.3927C98.0306 64.8814 97.9477 65.3681 97.7726 65.825C97.5048 66.7839 96.8678 67.599 96 68.0935C95.117 68.4764 94.1225 68.5188 93.2098 68.2125C92.2972 67.9062 91.5316 67.2731 91.0618 66.4362C90.7074 65.5198 90.6834 64.5095 90.994 63.5775C91.3046 62.6455 91.9305 61.8496 92.7648 61.3257C93.196 61.1132 93.6669 60.9922 94.1475 60.9705C94.6281 60.9488 95.1081 61.0269 95.5568 61.1997ZM95.2402 62.1449C94.4526 61.8215 93.575 61.788 92.7648 62.0504C92.4209 62.2037 92.1157 62.4315 91.8715 62.7171C91.6273 63.0027 91.4501 63.339 91.353 63.7014C91.2146 64.0495 91.1575 64.4244 91.186 64.7978C91.2145 65.1711 91.3279 65.5332 91.5177 65.8565C92.0112 66.553 92.735 67.0549 93.5625 67.2743C94.3403 67.5879 95.2055 67.6125 96 67.3436C96.3433 67.1939 96.6482 66.9687 96.8916 66.685C97.135 66.4012 97.3107 66.0662 97.4054 65.7052C97.5431 65.3577 97.6015 64.9841 97.5763 64.6114C97.5511 64.2387 97.443 63.8762 97.2598 63.5501C96.7775 62.8561 96.0608 62.3574 95.2402 62.1449Z" fill="#FABC68"/>
<path d="M100.007 55.2896C99.9435 55.4813 99.8927 55.6771 99.8554 55.8756C99.8261 56.0696 99.8113 56.2655 99.811 56.4616C98.9627 56.8523 98.3169 57.1737 97.8738 57.4131L96.3037 58.2575C96.2323 58.2916 96.1699 58.3418 96.1215 58.4042C96.0731 58.4665 96.0401 58.5393 96.0251 58.6167C96.0195 58.6796 96.0195 58.7429 96.0251 58.8058L97.8421 59.1082C98.2283 59.1712 98.7285 59.2343 99.3552 59.3036C99.2951 59.4471 99.2526 59.5973 99.2286 59.751C99.2037 59.9072 99.1931 60.0654 99.1969 60.2236C98.4372 60.0534 97.2977 59.8392 95.8225 59.5934C94.3474 59.3477 93.2458 59.1901 92.4102 59.1019C92.465 58.8541 92.4967 58.7028 92.5051 58.6482C92.5051 58.5222 92.5558 58.289 92.6064 57.9362C92.6571 57.5833 92.6887 57.306 92.7267 57.0666C92.9757 55.5836 93.6363 54.9304 94.7083 55.1068C94.9303 55.1391 95.1426 55.2189 95.3306 55.3407C95.5186 55.4626 95.6778 55.6236 95.7972 55.8126C96.0866 56.2864 96.2318 56.8336 96.2151 57.3879C96.9199 57.0182 98.1861 56.3167 100.014 55.2833L100.007 55.2896ZM94.6703 55.9764C93.7713 55.8315 93.2332 56.323 93.0433 57.4572C93.0433 57.6526 92.9799 57.9109 92.942 58.2323C93.2721 58.3301 93.6084 58.4059 93.9486 58.4592L95.6959 58.749C95.7256 58.6413 95.7489 58.5319 95.7656 58.4214C96.0061 56.9531 95.6453 56.1339 94.6703 55.9764Z" fill="#FABC68"/>
</g>
<defs>
<clipPath id="clip0">
<rect width="100" height="100" fill="white"/>
</clipPath>
</defs>
</svg>
