<svg width="46" height="46" viewBox="0 0 46 46" fill="none" xmlns="http://www.w3.org/2000/svg">
<path d="M40.6094 0H5.39062C2.41823 0 0 2.41823 0 5.39062V40.6094C0 43.5818 2.41823 46 5.39062 46H40.6094C43.5818 46 46 43.5818 46 40.6094V5.39062C46 2.41823 43.5818 0 40.6094 0ZM42.4062 40.6094C42.4062 41.6002 41.6002 42.4062 40.6094 42.4062H30.3672V27.7617H35.9186L36.8359 22.1914H30.3672V18.3281C30.3672 16.803 31.5374 15.6328 33.0625 15.6328H36.7461V10.0625H33.0625C28.4874 10.0625 24.7989 13.7686 24.7989 18.3438V22.1914H19.4062V27.7617H24.7989V42.4062H5.39062C4.39983 42.4062 3.59375 41.6002 3.59375 40.6094V5.39062C3.59375 4.39983 4.39983 3.59375 5.39062 3.59375H40.6094C41.6002 3.59375 42.4062 4.39983 42.4062 5.39062V40.6094Z" fill="#FABC68"/>
</svg>
