<svg width="46" height="46" viewBox="0 0 46 46" fill="none" xmlns="http://www.w3.org/2000/svg">
<path d="M31.625 0H14.375C6.43713 0 0 6.43713 0 14.375V31.625C0 39.5629 6.43713 46 14.375 46H31.625C39.5629 46 46 39.5629 46 31.625V14.375C46 6.43713 39.5629 0 31.625 0ZM41.6875 31.625C41.6875 37.1737 37.1737 41.6875 31.625 41.6875H14.375C8.82625 41.6875 4.3125 37.1737 4.3125 31.625V14.375C4.3125 8.82625 8.82625 4.3125 14.375 4.3125H31.625C37.1737 4.3125 41.6875 8.82625 41.6875 14.375V31.625Z" fill="#FABC68"/>
<path d="M23 11.5C16.6491 11.5 11.5 16.6491 11.5 23C11.5 29.3509 16.6491 34.5 23 34.5C29.3509 34.5 34.5 29.3509 34.5 23C34.5 16.6491 29.3509 11.5 23 11.5ZM23 30.1875C19.0382 30.1875 15.8125 26.9618 15.8125 23C15.8125 19.0354 19.0382 15.8125 23 15.8125C26.9618 15.8125 30.1875 19.0354 30.1875 23C30.1875 26.9618 26.9618 30.1875 23 30.1875Z" fill="#FABC68"/>
<path d="M35.3625 12.1697C36.2088 12.1697 36.8948 11.4837 36.8948 10.6374C36.8948 9.79105 36.2088 9.10498 35.3625 9.10498C34.5161 9.10498 33.8301 9.79105 33.8301 10.6374C33.8301 11.4837 34.5161 12.1697 35.3625 12.1697Z" fill="#FABC68"/>
</svg>
