<svg width="67" height="67" viewBox="0 0 67 67" fill="none" xmlns="http://www.w3.org/2000/svg">
<g clip-path="url(#clip0)">
<path d="M66.188 37.307C65.8137 35.9511 65.4613 34.6695 65.4613 33.5C65.4613 32.3305 65.8137 31.0488 66.188 29.6929C66.7837 27.5345 67.3983 25.3018 66.6628 23.1318C65.8996 20.8744 63.9976 19.399 62.1581 17.9747C61.0556 17.1198 60.0143 16.3129 59.3385 15.4245C58.6511 14.5186 58.1647 13.3098 57.652 12.0296C56.8058 9.92656 55.932 7.75069 53.9746 6.38458C52.0492 5.03886 49.6461 4.90924 47.3261 4.78544C45.8784 4.70825 44.5094 4.63398 43.3632 4.27716C42.2913 3.94364 41.1815 3.25185 40.0076 2.51927C38.1187 1.33958 35.9763 0.00260162 33.499 0.00260162C31.0216 0.00260162 28.8792 1.33958 26.9903 2.52073C25.8164 3.2533 24.7095 3.94655 23.6362 4.27861C22.4885 4.63543 21.1195 4.70971 19.6718 4.7869C17.3503 4.91215 14.9502 5.04031 13.0233 6.38603C11.0659 7.75214 10.1921 9.92656 9.34592 12.0296C8.83035 13.3098 8.34391 14.5201 7.65648 15.426C6.98071 16.3173 5.93938 17.1241 4.83688 17.9805C2.9989 19.4063 1.09974 20.8787 0.336585 23.1333C-0.3989 25.3048 0.215703 27.536 0.809917 29.6958C1.18421 31.0517 1.53666 32.3319 1.53666 33.5014C1.53666 34.6709 1.18421 35.9526 0.809917 37.3085C0.215703 39.4669 -0.3989 41.6995 0.336585 43.8725C1.09974 46.127 3.00035 47.6024 4.83834 49.0267C5.94084 49.8802 6.98217 50.6885 7.65648 51.5769C8.34536 52.4828 8.8318 53.6916 9.34592 54.9732C10.1921 57.0763 11.0674 59.2522 13.0263 60.6212C14.9502 61.964 17.3518 62.0922 19.6718 62.2159C21.1195 62.2931 22.4885 62.3674 23.6347 62.7242C24.7066 63.0577 25.815 63.7495 26.9874 64.4807C28.8778 65.6589 31.0202 66.9973 33.499 66.9973C35.9778 66.9973 38.1216 65.6589 40.0135 64.4792C41.1859 63.7481 42.2927 63.0563 43.3661 62.7228C44.5123 62.366 45.8813 62.2917 47.329 62.2145C49.6505 62.0907 52.0507 61.9625 53.9746 60.6197C55.9364 59.2507 56.8102 57.0719 57.6564 54.9674C58.1705 53.6887 58.6555 52.4799 59.34 51.5769C60.0158 50.6885 61.0571 49.8802 62.1596 49.0267C63.999 47.6009 65.8996 46.127 66.6643 43.871C67.3997 41.6981 66.7837 39.4669 66.188 37.307ZM63.9042 42.9375C63.4221 44.3619 61.9409 45.5095 60.3739 46.7241C59.1723 47.6562 57.9285 48.6204 57.0197 49.8146C56.0978 51.0322 55.5153 52.4799 54.9516 53.8824C54.2336 55.6709 53.555 57.3588 52.3068 58.2298C51.063 59.0978 49.1741 59.1983 47.173 59.3046C45.6103 59.3876 43.9922 59.4735 42.4979 59.9396C41.0692 60.3867 39.7468 61.2096 38.4695 62.0077C36.7582 63.0767 35.1431 64.0845 33.4988 64.0845C31.8545 64.0845 30.2408 63.0767 28.5295 62.0077C27.2537 61.211 25.9327 60.3867 24.5026 59.9396C23.0083 59.475 21.3902 59.3876 19.8275 59.3046C17.8264 59.1983 15.936 59.0963 14.6937 58.2298C13.447 57.3588 12.7668 55.6709 12.0488 53.8838C11.4852 52.4813 10.9012 51.0322 9.97781 49.8146C9.07047 48.6204 7.8267 47.6562 6.62371 46.7227C5.05807 45.508 3.57836 44.3619 3.09629 42.9375C2.64626 41.6107 3.1196 39.8951 3.61914 38.0804C4.02694 36.5963 4.4493 35.0641 4.4493 33.4985C4.4493 31.9329 4.02694 30.4022 3.61914 28.9181C3.11814 27.1034 2.64626 25.3892 3.09629 24.0624C3.57836 22.6381 5.05662 21.4919 6.62225 20.2772C7.82525 19.3437 9.07047 18.3781 9.97636 17.1824C10.9026 15.9648 11.4852 14.5142 12.0503 13.1117C12.7668 11.3247 13.4455 9.63819 14.6907 8.77017C15.9345 7.9007 17.8264 7.80021 19.8289 7.69389C21.3902 7.60942 23.0083 7.52349 24.5011 7.05744C25.9327 6.61178 27.2552 5.78599 28.5339 4.98788C30.2423 3.92325 31.856 2.91542 33.4988 2.91542C35.1416 2.91542 36.7568 3.92325 38.4666 4.9908C39.7453 5.79036 41.0663 6.61469 42.4979 7.06035C43.9907 7.52495 45.6073 7.61087 47.1701 7.69534C49.1726 7.80166 51.063 7.90507 52.3068 8.77309C53.5535 9.64402 54.2322 11.3305 54.9487 13.1146C55.5138 14.5186 56.0949 15.9677 57.0212 17.1853C57.9285 18.3795 59.1723 19.3437 60.3739 20.2758C61.9409 21.4919 63.4221 22.6395 63.9042 24.0668C64.3542 25.3907 63.8794 27.1049 63.3799 28.9196C62.9706 30.4036 62.5483 31.9358 62.5483 33.5014C62.5483 35.0671 62.9692 36.5992 63.3799 38.0818C63.8811 39.8965 64.3542 41.6107 63.9042 42.9375Z" fill="#FABC68"/>
<path d="M33.4987 11.6538C21.4528 11.6538 11.6526 21.454 11.6526 33.4999C11.6526 45.5458 21.4528 55.346 33.4987 55.346C45.5446 55.346 55.3448 45.5458 55.3448 33.4999C55.3448 21.454 45.5446 11.6538 33.4987 11.6538ZM33.4987 52.4332C23.0592 52.4332 14.5654 43.9394 14.5654 33.4999C14.5654 23.0604 23.0592 14.5666 33.4987 14.5666C38.883 14.5666 43.7372 16.8372 47.1889 20.4578L33.3094 39.9897L25.7899 32.4702C25.2205 31.9008 24.3 31.9008 23.7306 32.4702C23.1611 33.0397 23.1611 33.9601 23.7306 34.5296L32.469 43.268C32.7428 43.5433 33.1142 43.6948 33.4987 43.6948C33.538 43.6948 33.5803 43.6933 33.621 43.6889C34.0478 43.654 34.4381 43.4311 34.6857 43.0816L49.0997 22.7968C51.197 25.8436 52.432 29.5283 52.432 33.4999C52.432 43.9394 43.9382 52.4332 33.4987 52.4332Z" fill="#FABC68"/>
</g>
<defs>
<clipPath id="clip0">
<rect width="67" height="67" fill="white"/>
</clipPath>
</defs>
</svg>
