<svg width="76" height="76" viewBox="0 0 76 76" fill="none" xmlns="http://www.w3.org/2000/svg">
<path d="M16.6139 33.7186C15.4163 33.7186 14.4424 34.693 14.4424 35.8901V63.9861C12.2705 66.3166 11.0803 69.3373 11.0803 72.5404V72.7429C11.0803 73.343 11.5665 73.8286 12.166 73.8286H57.0663C57.6658 73.8286 58.152 73.343 58.152 72.7429V72.5404C58.152 69.2811 56.9194 66.2106 54.6727 63.8621V35.8901C54.6727 34.8396 53.9224 33.9614 52.9295 33.7619L63.1262 17.9493C63.1619 17.8937 63.1723 17.8273 63.1974 17.7666C63.2262 17.6963 63.266 17.6292 63.2794 17.5562C63.2802 17.5523 63.283 17.5492 63.2837 17.5453L64.9038 8.15664C64.978 7.72618 64.7871 7.29253 64.4187 7.05715C64.0508 6.82283 63.5774 6.83131 63.2169 7.07835L55.5363 12.3839C55.4912 12.4153 55.464 12.4648 55.4243 12.5022C55.3658 12.557 55.2999 12.6018 55.2532 12.6713C55.2489 12.6776 55.2488 12.6852 55.2447 12.6916C55.2408 12.6978 55.2337 12.7011 55.2299 12.7073L42.2478 33.7186H41.6759V11.6131H43.3724V20.8353C43.3724 21.4354 43.8585 21.921 44.4581 21.921C45.0577 21.921 45.5438 21.4354 45.5438 20.8353V10.5274C45.5438 9.92729 45.0577 9.44169 44.4581 9.44169H41.6759V5.01931C41.6759 3.44906 40.3983 2.17143 38.8281 2.17143H35.775C34.2048 2.17143 32.9277 3.44906 32.9277 5.01931V33.7186H31.2441L24.9868 5.97143C24.9232 5.69046 24.7509 5.44554 24.5076 5.2918C24.2637 5.13912 23.9711 5.08823 23.688 5.15079L13.0259 7.56183C12.4412 7.69437 12.0743 8.27539 12.2063 8.86066L17.2929 31.3696C17.2931 31.3705 17.2928 31.3713 17.293 31.3723C17.2932 31.3733 17.2939 31.3741 17.2942 31.3752L17.8238 33.7186H16.6139ZM19.1628 35.89C19.1694 35.8901 19.1753 35.8933 19.1818 35.8933C19.1916 35.8933 19.2017 35.8903 19.2115 35.89L33.9688 35.8895C33.9844 35.8902 33.9975 35.8986 34.0134 35.8986C34.0292 35.8986 34.0423 35.8902 34.058 35.8895L40.5447 35.8893C40.5607 35.8901 40.5741 35.8986 40.5902 35.8986C40.6064 35.8986 40.6198 35.8901 40.6358 35.8893L42.8461 35.8893C42.848 35.8893 42.8499 35.8901 42.8518 35.8901C42.8539 35.8901 42.8558 35.8893 42.8579 35.8893L52.5013 35.889V63.3383H16.6139V35.8901L19.1628 35.89ZM55.944 71.6572H13.2883C13.481 69.357 14.4312 67.2158 16.0041 65.5097H53.2282C54.8011 67.2158 55.7513 69.357 55.944 71.6572ZM61.4292 15.5235L58.0799 13.2669L62.3247 10.3344L61.4292 15.5235ZM56.4837 14.8091L60.7248 17.6664L50.3738 33.7186H44.7996L56.4837 14.8091ZM35.775 4.34286H38.8281C39.2013 4.34286 39.5045 4.6461 39.5045 5.01931V9.44169H35.0991V5.01931C35.0991 4.6461 35.4023 4.34286 35.775 4.34286ZM35.0991 11.6131H39.5045V33.7186H35.0991V11.6131ZM19.6509 31.9526L21.0378 31.6395C21.6226 31.5069 21.9899 30.9259 21.8579 30.3406C21.7259 29.7564 21.1481 29.3885 20.5596 29.521L19.1722 29.8343L18.3097 26.0175L19.6976 25.7041C20.2824 25.5715 20.6498 24.9905 20.5178 24.4053C20.3852 23.821 19.8042 23.4552 19.2195 23.5857L17.831 23.8992L16.9686 20.0827L18.3575 19.7698C18.9427 19.6383 19.3101 19.0573 19.1781 18.472C19.0456 17.8867 18.4651 17.5209 17.8803 17.6513L16.49 17.9647L15.6276 14.1484L17.0178 13.8344C17.6026 13.7018 17.9699 13.1208 17.8379 12.5356C17.7054 11.9513 17.1212 11.5845 16.5396 11.716L15.149 12.03L14.5638 9.44063L23.1075 7.50882L29.0181 33.7186H20.0499L19.6509 31.9526Z" fill="#FABC68"/>
</svg>
