<svg width="71" height="71" viewBox="0 0 71 71" fill="none" xmlns="http://www.w3.org/2000/svg">
<path d="M63.2825 0H7.71731C6.86376 0 6.17383 0.691478 6.17383 1.54348V50.9348C6.17383 51.4503 6.43159 51.9319 6.86068 52.219L34.6433 70.7407C34.9026 70.9136 35.202 71 35.4999 71C35.7978 71 36.0972 70.9136 36.3565 70.7407L64.1392 52.219C64.5682 51.9319 64.826 51.4503 64.826 50.9348V1.54348C64.826 0.691478 64.1361 0 63.2825 0ZM61.739 50.109L35.4999 67.6013L9.26078 50.109V12.3478H15.4347V44.7609C15.4347 45.2764 15.6925 45.758 16.1215 46.045L34.6433 58.3929C34.9026 58.5657 35.202 58.6522 35.4999 58.6522C35.7978 58.6522 36.0972 58.5657 36.3565 58.3929L54.8783 46.045C55.3074 45.758 55.5651 45.2764 55.5651 44.7609V12.3478H61.739V50.109ZM18.5217 43.9351V12.3478H52.4782V43.9351L35.4999 55.2534L18.5217 43.9351ZM61.739 9.26087H54.0217H16.9782H9.26078V3.08696H61.739V9.26087Z" fill="#FABC68"/>
</svg>
