<svg width="45" height="46" viewBox="0 0 45 46" fill="none" xmlns="http://www.w3.org/2000/svg">
<g clip-path="url(#clip0)">
<path d="M42.525 2.53037C40.8753 0.843561 38.8876 0 36.5636 0H8.43843C6.11442 0 4.12678 0.843561 2.47634 2.53037C0.8262 4.21749 0.000976562 6.24919 0.000976562 8.62494V37.3748C0.000976562 39.7504 0.8262 41.7823 2.47634 43.4694C4.12678 45.1565 6.11442 46.0001 8.43843 46.0001H36.5633C38.8873 46.0001 40.875 45.1565 42.5247 43.4694C44.1751 41.7823 45.0004 39.7505 45.0004 37.3748V8.62494C45.0003 6.24919 44.175 4.21718 42.525 2.53037ZM34.4247 17.6994C34.4443 17.879 34.4543 18.1481 34.4543 18.5081C34.4543 20.1853 34.2148 21.8673 33.7365 23.5539C33.2582 25.2414 32.5257 26.8585 31.5389 28.4057C30.5532 29.9528 29.3764 31.3208 28.0094 32.5087C26.6421 33.6961 25.0017 34.6448 23.0872 35.3531C21.1737 36.0624 19.1225 36.417 16.9352 36.417C13.537 36.417 10.3925 35.478 7.50176 33.6021C7.9705 33.6617 8.45905 33.6918 8.96658 33.6918C11.7987 33.6918 14.3476 32.7934 16.6133 30.996C15.2854 30.9766 14.0986 30.5576 13.0538 29.7382C12.0087 28.9197 11.2814 27.8817 10.8711 26.6238C11.3787 26.7035 11.7595 26.743 12.0134 26.743C12.443 26.743 12.9412 26.6633 13.5075 26.504C12.0817 26.224 10.8807 25.501 9.90417 24.333C8.92738 23.1649 8.43914 21.8323 8.43914 20.335V20.2751C9.47401 20.7739 10.4506 21.0334 11.3687 21.0537C9.5913 19.8355 8.70266 18.0888 8.70266 15.8128C8.70266 14.6947 8.98567 13.6366 9.5521 12.6383C11.0949 14.5751 12.9703 16.1222 15.177 17.2801C17.3839 18.4379 19.7474 19.0871 22.2668 19.2267C22.1693 18.8474 22.1204 18.3681 22.1204 17.7893C22.1204 16.052 22.721 14.5698 23.9223 13.3418C25.1232 12.1139 26.5735 11.4998 28.2725 11.4998C30.0698 11.4998 31.5643 12.1588 32.7555 13.4766C34.1033 13.2171 35.4124 12.7077 36.6815 11.9494C36.1934 13.4863 35.2846 14.6544 33.9571 15.453C35.2263 15.273 36.4076 14.9338 37.5011 14.4347C36.6809 15.7124 35.6552 16.8005 34.4247 17.6994Z" fill="#FABC68"/>
</g>
<defs>
<clipPath id="clip0">
<rect width="45" height="46" fill="white"/>
</clipPath>
</defs>
</svg>
