<svg width="100" height="100" viewBox="0 0 100 100" fill="none" xmlns="http://www.w3.org/2000/svg">
<path d="M47.1239 99.9582C46.9405 99.9499 46.307 99.8915 45.7068 99.8498C37.4624 99.1746 29.2596 96.3237 22.4073 91.7471C13.7711 85.9702 7.19392 77.8842 3.45934 68.4227C1.55037 63.5794 0.416654 58.4944 0.0582006 53.0842C-0.0501689 51.442 -0.000152194 46.9905 0.149898 45.5817C0.399981 43.1393 0.733426 40.9635 1.15857 39.0796C2.96751 31.0769 6.39365 24.1829 11.7871 17.6974C12.9542 16.297 16.3136 12.9375 17.6974 11.7788C22.8742 7.48568 28.0425 4.57638 34.0779 2.56737C38.3377 1.1419 42.3307 0.366637 46.9155 0.0582006C48.5577 -0.0501689 53.0092 -0.000152194 54.418 0.149898C61.0702 0.825123 66.6221 2.38398 72.1323 5.10989C83.236 10.6034 92.0139 20.1232 96.5404 31.5771C98.4494 36.4203 99.5831 41.5054 99.9416 46.9155C100.05 48.5577 99.9999 53.0092 99.8499 54.418C99.4997 57.8608 99.0496 60.3533 98.216 63.4044C95.5901 73.0242 89.8632 81.9022 82.1356 88.346C73.8495 95.265 64.0546 99.1913 53.251 99.9332C52.1589 100.008 47.9409 100.025 47.1239 99.9582ZM48.5744 94.7815C48.9162 94.7231 48.9495 94.6981 49.0662 94.373L49.1829 94.0146H49.9582H50.7251L50.8335 94.3897L50.9419 94.7648H51.6338C52.0256 94.7648 52.334 94.7315 52.334 94.6815C52.334 94.6064 51.3837 91.8889 50.9335 90.6801L50.7001 90.0549H49.9249H49.1413L49.0246 90.3884C48.316 92.3473 47.5241 94.7565 47.5574 94.7982C47.6241 94.8649 48.0992 94.8565 48.5744 94.7815ZM55.0849 94.4731C55.1183 94.4564 55.1099 94.1896 55.0682 93.8812C55.0266 93.5811 55.0016 93.281 55.0182 93.2143C55.0349 93.1393 55.26 93.356 55.5767 93.7311L56.1019 94.3647L56.4937 94.3147C56.7021 94.2813 57.0356 94.2396 57.2356 94.2063C57.4274 94.1813 57.5858 94.1396 57.5858 94.1063C57.5858 94.0813 57.269 93.6978 56.8855 93.2643L56.1853 92.4724L56.452 92.2223C56.8022 91.9055 56.9522 91.447 56.8939 90.9135C56.8272 90.3717 56.6188 90.0466 56.2103 89.8465C55.8018 89.6464 55.3517 89.6381 54.2096 89.8048C53.7511 89.8715 53.3427 89.9299 53.301 89.9299C53.2676 89.9299 53.2593 90.1466 53.2843 90.4134C53.3927 91.3053 53.7511 94.0563 53.8012 94.3397L53.8428 94.6231L54.4347 94.5648C54.7598 94.5397 55.0516 94.4981 55.0849 94.4731ZM46.0486 94.1646C46.3153 93.9062 46.3653 93.7978 46.3987 93.3977C46.4404 92.8308 46.3153 92.4807 45.9902 92.289C45.6984 92.1139 45.6901 92.0723 45.9569 91.9305C46.2736 91.7638 46.432 91.447 46.4404 90.9969C46.457 90.1633 46.0402 89.9132 44.273 89.6965L43.0059 89.5464L42.9642 89.8382C42.9392 90.0049 42.8225 90.9635 42.7058 91.9722C42.5891 92.9809 42.4807 93.8895 42.464 93.9979C42.4474 94.1146 42.4807 94.2146 42.5557 94.2396C42.8558 94.3563 44.2813 94.4981 44.9732 94.4897C45.7485 94.4731 45.7485 94.4731 46.0486 94.1646ZM62.0039 93.1059C62.3707 92.9726 62.379 92.9642 62.404 92.5474L62.429 92.1306L63.1459 91.8972C63.8462 91.6638 63.8712 91.6638 63.9795 91.8138C64.0462 91.9055 64.1629 92.0556 64.238 92.1556L64.3797 92.3473L65.0049 92.1473C65.3633 92.0389 65.6218 91.9139 65.6051 91.8555C65.5717 91.6805 62.7291 87.9292 62.6458 87.9292C62.5958 87.9292 62.2456 88.0209 61.8788 88.1376L61.1953 88.346L61.1453 90.1549C61.1119 91.1553 61.0869 92.2807 61.0869 92.6641V93.3643L61.362 93.306C61.5037 93.2727 61.7955 93.181 62.0039 93.1059ZM38.0542 90.9635C38.4294 89.8215 38.7461 88.8212 38.7461 88.7378C38.7461 88.5794 38.3293 88.3627 37.8792 88.2877L37.6207 88.246L37.2123 89.4714C36.9955 90.1466 36.7871 90.6635 36.7538 90.6218C36.7204 90.5884 36.5871 90.0883 36.462 89.5131C36.337 88.9379 36.1953 88.2877 36.1369 88.0626L36.0285 87.6458L35.42 87.4457C35.0866 87.3373 34.7865 87.279 34.7448 87.3123C34.7114 87.354 34.3697 88.3293 33.9945 89.4714C33.6111 90.6218 33.286 91.5971 33.2693 91.6554C33.2359 91.7471 34.3697 92.1723 34.4364 92.0889C34.4614 92.0723 34.6531 91.5221 34.8615 90.8718C35.0782 90.2133 35.2866 89.6798 35.32 89.6798C35.3533 89.6798 35.5034 90.2717 35.6534 90.9969C35.8118 91.7138 35.9785 92.3974 36.0285 92.5057C36.0952 92.6558 36.2786 92.7642 36.6621 92.8975C36.9622 92.9976 37.2373 93.0726 37.279 93.0642C37.329 93.0559 37.6708 92.1056 38.0542 90.9635ZM67.239 91.322C68.456 90.9969 68.9729 90.0299 68.4727 88.9712C68.181 88.3293 67.9725 88.2293 66.8805 88.1793C65.9719 88.1376 65.9635 88.1376 65.9385 87.9209C65.9052 87.6041 66.1219 87.4707 66.6638 87.4707H67.1306L67.1556 86.9789C67.189 86.412 67.1306 86.3453 66.6221 86.3453C65.9385 86.3453 65.1549 86.7621 64.8298 87.2957C64.4881 87.8542 64.7131 88.7878 65.2717 89.1963C65.5134 89.363 65.6384 89.388 66.347 89.388C67.1806 89.388 67.4224 89.4714 67.4224 89.7631C67.4224 90.1133 66.9222 90.2967 66.322 90.1716C66.0969 90.1216 65.8969 90.0966 65.8718 90.1216C65.7885 90.1966 65.6801 91.1386 65.7385 91.197C65.8052 91.2636 66.3887 91.397 66.6721 91.422C66.7471 91.4304 66.9972 91.3804 67.239 91.322ZM31.8688 90.9135C31.8938 90.8052 32.0272 89.8382 32.1606 88.7628C32.3023 87.6875 32.4357 86.6621 32.469 86.4954L32.5107 86.187L31.8021 85.8368L31.0852 85.4784L30.5601 85.9702C29.1846 87.2707 27.5757 88.8879 27.5757 88.9712C27.5757 89.0212 27.8425 89.188 28.1593 89.3463L28.7511 89.6298L29.0512 89.3297L29.3513 89.0296L30.0432 89.3714C30.5434 89.6214 30.7351 89.7548 30.7101 89.8465C30.6851 89.9132 30.6601 90.0966 30.6434 90.255C30.6184 90.5217 30.6434 90.5551 31.1186 90.8135C31.7188 91.1469 31.8105 91.1553 31.8688 90.9135ZM71.0486 89.5297C72.0239 89.0296 72.349 88.1293 71.8655 87.254C71.4987 86.5788 70.9986 86.3703 70.1316 86.5204C69.4397 86.6371 69.173 86.5788 69.173 86.3037C69.173 86.0202 69.473 85.8452 69.9482 85.8452H70.3483L70.3233 85.3283L70.2983 84.8032L69.8315 84.7782C69.2646 84.7448 68.6144 85.0532 68.2226 85.5367C67.9976 85.8202 67.9642 85.9202 67.9642 86.3787C67.9642 87.0122 68.206 87.429 68.7228 87.6791C69.0312 87.8292 69.1229 87.8375 69.7148 87.7541C70.4984 87.6458 70.7401 87.6958 70.8068 87.9709C70.9319 88.4711 70.265 88.7045 69.4064 88.4627C69.273 88.421 69.2563 88.4877 69.2563 89.0462C69.2563 89.6214 69.273 89.6714 69.448 89.7131C69.8482 89.7965 70.7151 89.7048 71.0486 89.5297ZM26.5837 87.8292C26.7004 87.6291 27.259 86.7455 27.8175 85.8618C28.3677 84.9782 28.8261 84.2363 28.8261 84.2196C28.8261 84.1446 27.7925 83.5194 27.7341 83.5611C27.6674 83.6028 25.3416 87.2873 25.2833 87.4457C25.2416 87.5457 26.0836 88.1543 26.2836 88.171C26.3336 88.1793 26.467 88.0209 26.5837 87.8292ZM74.8332 87.1706C75.3834 86.9289 75.8585 86.5037 76.1336 86.0036C76.3503 85.6201 76.3837 85.4617 76.3837 84.9282C76.3837 84.4114 76.342 84.2196 76.1503 83.8278C75.4667 82.4274 74.1329 81.9272 72.8242 82.5774C71.2403 83.3527 70.8735 85.0783 71.9989 86.4871C72.6741 87.3457 73.8162 87.6208 74.8332 87.1706ZM25.1082 84.6448C25.8668 83.6861 26.492 82.8525 26.492 82.7942C26.492 82.6941 25.6918 82.0022 25.5834 82.0189C25.5584 82.0189 25.1833 82.469 24.7498 83.0192C24.3246 83.5694 23.9578 84.0029 23.9412 83.9862C23.9245 83.9779 23.9829 83.361 24.0746 82.6358C24.2996 80.8185 24.3163 80.9435 23.7911 80.5351C23.5494 80.3433 23.3076 80.1766 23.2576 80.1599C23.1576 80.1349 20.3233 83.6611 20.3316 83.8028C20.3316 83.8695 20.8651 84.3197 21.1986 84.5281C21.2486 84.5614 21.6071 84.1779 22.0655 83.5861C22.499 83.0442 22.8742 82.5941 22.9075 82.5941C22.9659 82.5941 22.9742 82.5524 22.7408 84.3363C22.6491 85.0449 22.5991 85.6534 22.6324 85.6868C22.9408 85.9786 23.5494 86.4204 23.6327 86.4037C23.6911 86.3954 24.3496 85.6034 25.1082 84.6448ZM53.8762 85.0532C59.1529 84.4197 63.8045 82.8275 68.2143 80.1349C70.7902 78.5677 72.7908 76.9922 74.9999 74.7665L76.6171 73.1493L76.417 72.9825C76.1419 72.7575 74.5581 72.0072 73.5911 71.6488C70.4734 70.49 66.1386 69.7565 62.4207 69.7565C59.6448 69.7565 57.8025 69.9899 52.3673 71.0486C51.0836 71.2987 49.9832 71.507 49.9332 71.507C49.8582 71.507 49.8332 67.0806 49.8248 53.401C49.8165 43.4394 49.7998 35.3783 49.7831 35.495C49.7665 35.6117 49.6998 36.7204 49.6248 37.9542C49.3913 42.0806 48.9162 50.0999 48.7911 52.1256C48.5994 55.1516 48.341 59.4614 48.2076 61.7955C47.8825 67.464 47.8325 68.3393 47.7825 68.8979L47.7325 69.4897L47.1656 69.248C45.1316 68.381 41.5637 67.414 39.0796 67.0556C35.2283 66.497 30.7601 66.7555 26.417 67.8058C25.7584 67.9559 25.1916 68.0892 25.1583 68.0892C25.1249 68.0892 25.1166 67.9142 25.1332 67.6974C25.1499 67.4724 25.2916 64.6881 25.4583 61.5037C25.6167 58.3193 25.8168 54.3263 25.9085 52.6258C26.0002 50.9335 26.1836 47.3823 26.317 44.7481C26.4587 42.1139 26.6087 39.2963 26.6588 38.496C26.7004 37.6958 26.7755 36.3286 26.8255 35.4534C26.8672 34.5864 26.9672 32.7691 27.0339 31.4187C27.1089 30.0766 27.1506 28.9512 27.1256 28.9262C27.0505 28.8595 25.8835 29.7765 25.2916 30.3683C24.9248 30.7434 24.7414 30.9935 24.7414 31.1269C24.7414 31.3937 23.7828 44.2396 23.1993 51.7921C22.8575 56.1686 21.9739 67.9892 21.6988 71.7571C21.6321 72.6991 21.557 73.5911 21.5404 73.7411C21.5154 73.8828 21.532 74.0079 21.5737 74.0079C21.6154 74.0079 21.8822 73.8412 22.1739 73.6411C24.7498 71.8405 28.7011 70.6318 33.9529 70.0316C35.6618 69.8398 39.1463 69.8398 40.8718 70.0399C42.6724 70.2483 49.2163 71.357 49.7331 71.5487C49.8082 71.5737 49.8332 73.0326 49.8332 78.4344V85.2867L51.317 85.2366C52.1256 85.2033 53.2843 85.1283 53.8762 85.0532ZM79.1513 83.8112C79.8098 83.4777 80.5351 82.5941 80.3684 82.319C80.2683 82.1523 79.6348 81.427 79.5931 81.427C79.5681 81.427 79.4847 81.6104 79.4014 81.8438C79.1179 82.6358 78.3343 82.9442 77.6508 82.5191C76.5337 81.8355 76.8255 80.31 78.1009 80.1766L78.5177 80.1349L78.0926 79.6598C77.6258 79.1346 77.4841 79.0929 76.9839 79.3013C75.5751 79.8848 75.1749 81.6771 76.1503 82.9692C76.9505 84.0112 78.1176 84.3363 79.1513 83.8112ZM22.1489 79.1596C22.1656 79.1179 21.9739 78.8762 21.7321 78.6261L21.2903 78.1759L20.8235 78.6594C20.5734 78.9179 19.8231 79.6848 19.1646 80.36L17.9725 81.5854L18.4477 82.0272L18.9312 82.4774L20.5234 80.8602C21.3987 79.9765 22.1322 79.2096 22.1489 79.1596ZM82.0106 81.0102C82.0106 80.9269 78.8012 77.6758 78.7178 77.6758C78.6094 77.6758 77.8425 78.4427 77.8425 78.5511C77.8425 78.5928 78.5844 79.3764 79.4847 80.2766L81.1353 81.9272L81.5688 81.4937C81.8105 81.252 82.0106 81.0352 82.0106 81.0102ZM18.3143 78.4094C18.9562 77.3257 19.4897 76.392 19.4897 76.3253C19.4897 76.267 19.2813 75.9585 19.0229 75.6501C18.6978 75.2583 18.5144 75.0999 18.4143 75.1333C17.7808 75.3333 13.9462 76.8422 13.9295 76.9005C13.9128 76.9339 14.1046 77.184 14.3463 77.4507L14.7798 77.9342L15.0882 77.8092C15.2633 77.7341 15.4467 77.6758 15.505 77.6758C15.6051 77.6841 16.2553 78.426 16.4303 78.7345C16.4804 78.8095 16.4303 78.9679 16.2803 79.1846L16.0635 79.5181L16.497 80.0599C16.8471 80.4851 16.9555 80.5768 17.0389 80.4934C17.0889 80.435 17.6641 79.5014 18.3143 78.4094ZM83.0026 80.0516L83.411 79.5597L83.2026 79.2013C82.9609 78.7845 82.9692 78.7678 83.6111 78.0509L83.9862 77.6424L84.328 77.7925C84.5114 77.8758 84.7031 77.9342 84.7448 77.9175C84.8448 77.8758 85.5951 77.0006 85.5951 76.9255C85.5951 76.8755 81.1103 75.0916 80.9936 75.0916C80.9269 75.0916 80.0099 76.217 80.0099 76.3003C80.0099 76.4254 82.4691 80.5934 82.5274 80.5768C82.5608 80.5601 82.7775 80.3267 83.0026 80.0516ZM48.5411 80.1766C49.0079 79.8932 49.2746 79.2263 49.3163 78.276C49.383 76.8588 48.9995 76.0169 48.1909 75.7751C47.7075 75.6334 47.4157 75.6501 46.9989 75.8668C46.2736 76.2253 46.0486 76.8338 46.0986 78.2593C46.1319 79.268 46.2653 79.6848 46.6488 80.0349C47.1073 80.4517 47.9992 80.5101 48.5411 80.1766ZM44.9149 79.8015C44.9149 79.493 44.8815 79.343 44.8148 79.3347C44.7565 79.3263 44.5397 79.3097 44.3313 79.3013C44.1229 79.2847 43.9062 79.2763 43.8478 79.268C43.7895 79.2596 43.9479 79.0179 44.1979 78.7178C44.448 78.426 44.7148 78.0759 44.7815 77.9509C45.2233 77.0839 44.8732 76.1003 44.0229 75.8085C43.1143 75.5001 42.3223 75.8002 41.8972 76.6171C41.8138 76.7922 41.7471 77.0422 41.7638 77.1589C41.7888 77.3673 41.8138 77.384 42.2723 77.409C42.7308 77.434 42.7558 77.4257 42.8308 77.2006C42.9725 76.8005 43.0476 76.7171 43.306 76.6921C43.6311 76.6588 43.8312 76.8588 43.8312 77.209C43.8312 77.5424 43.3143 78.301 42.339 79.4014C41.9722 79.8182 41.6638 80.185 41.6638 80.21C41.6638 80.235 42.3973 80.26 43.2893 80.26H44.9149V79.8015ZM13.5294 75.3667C13.6627 75.0499 13.8545 74.5998 13.9628 74.358L14.1546 73.9162L14.3963 74.0496C14.8131 74.258 15.3967 74.208 15.8385 73.9329C16.0552 73.7911 16.2886 73.5744 16.3553 73.4327C16.5054 73.1493 16.5304 72.5407 16.4053 72.224C16.2719 71.8572 15.2133 70.2566 15.1132 70.2566C15.0549 70.2566 14.8798 70.3483 14.7131 70.4567C14.5547 70.5651 13.7044 71.1153 12.8291 71.6738C11.9538 72.2323 11.2369 72.7325 11.2369 72.7908C11.2369 72.8575 11.6871 73.5994 11.8705 73.8245C11.8788 73.8412 12.1372 73.6995 12.4457 73.5077C12.7458 73.3077 13.0125 73.1743 13.0375 73.1909C13.0542 73.216 12.9208 73.5577 12.7291 73.9579L12.3873 74.6748L12.7875 75.3C13.0125 75.6418 13.2209 75.9252 13.2459 75.9252C13.2709 75.9252 13.4043 75.6751 13.5294 75.3667ZM86.7622 75.2583L87.0956 74.7665L86.6621 74.4414C86.4204 74.2663 85.7868 73.8328 85.2617 73.466C84.7365 73.1076 84.278 72.7908 84.2447 72.7658C84.2113 72.7325 84.2947 72.5407 84.428 72.3407C84.5698 72.1323 84.6781 71.9322 84.6781 71.8822C84.6781 71.7655 83.8529 71.2403 83.7612 71.2987C83.6778 71.3487 82.0106 73.7411 81.9522 73.8912C81.9189 73.9745 82.6858 74.5914 82.8275 74.5914C82.8609 74.5914 82.9942 74.4247 83.1193 74.2163C83.2526 74.0079 83.386 73.8412 83.4194 73.8412C83.4527 73.8412 84.0946 74.2746 84.8448 74.7998C85.6034 75.325 86.262 75.7585 86.3203 75.7585C86.3787 75.7585 86.5704 75.5334 86.7622 75.2583ZM88.296 72.8492C88.4627 72.5824 88.5961 72.324 88.5961 72.2823C88.5961 72.2073 84.7532 69.8398 84.6364 69.8398C84.6114 69.8398 84.4447 70.0732 84.2613 70.3567C84.0029 70.7651 83.9529 70.8985 84.0362 70.9819C84.1613 71.0986 87.8625 73.341 87.9459 73.341C87.9792 73.341 88.1376 73.1243 88.296 72.8492ZM79.0429 69.9232C81.7938 65.9385 83.6611 61.5121 84.5864 56.7938C87.179 43.5394 82.2023 30.2516 71.5487 21.9488C66.0469 17.6641 59.0362 14.9882 52.334 14.6214C51.9005 14.5964 51.1586 14.5547 50.6918 14.5297L49.8332 14.4797V17.6557C49.8332 20.7901 49.8332 20.8235 49.6581 20.8235C49.358 20.8235 49.2496 20.3733 49.2496 19.0729V17.9058H48.6994H48.1493L48.1826 19.348C48.2076 20.7318 48.216 20.7901 48.4327 21.1236C48.6661 21.482 48.9995 21.6904 49.5247 21.7821L49.8332 21.8405V24.9082C49.8332 27.9175 49.8332 27.9759 49.9999 27.9342C50.2666 27.8591 51.2503 28.0676 51.6838 28.2926C52.2923 28.6011 52.7841 29.1012 53.0759 29.6848C53.2093 29.9682 53.3427 30.2683 53.3677 30.3516C53.4094 30.485 53.6844 30.4934 57.6524 30.4934H61.8955L62.0789 29.8598C62.179 29.5097 62.279 29.2429 62.304 29.2596C62.3207 29.2846 62.4207 29.5597 62.5291 29.8765L62.7125 30.4517L63.7545 30.4934L64.7965 30.535L64.8215 30.9018C64.8715 31.6437 64.8548 31.6604 63.9712 31.6604C63.5461 31.6604 63.1793 31.6854 63.1459 31.7104C63.1209 31.7354 63.1376 31.8605 63.1793 31.9855C63.2293 32.1022 63.7295 33.6444 64.2963 35.4117C64.8632 37.1789 65.455 39.0379 65.6134 39.5381C65.7802 40.0466 66.247 41.5054 66.6554 42.7891C67.0723 44.0729 67.7475 46.1736 68.1559 47.4574C69.5231 51.7088 70.0899 53.5094 70.0816 53.6094C70.0816 53.6678 69.9732 53.4093 69.8398 53.0426C69.6148 52.4007 68.5561 49.4497 66.4804 43.7061C65.9552 42.239 65.0132 39.6297 64.3964 37.9125C62.5124 32.6858 62.3123 32.1522 62.2873 32.1856C62.2623 32.2023 61.9289 33.1526 61.5371 34.2946C61.1453 35.4367 60.6368 36.9122 60.4034 37.5791C60.1699 38.246 59.5197 40.1549 58.9445 41.8305C55.3183 52.4507 55.1183 53.0342 55.21 52.5591C55.2683 52.284 56.7521 47.3323 57.9192 43.5394C58.3693 42.0722 59.0779 39.7465 59.4947 38.371C59.9032 36.9955 60.5284 34.9532 60.8702 33.8361C61.2203 32.7108 61.5037 31.7605 61.5037 31.7271C61.5037 31.6938 59.6865 31.6604 57.469 31.6604H53.4344L53.376 31.9689C53.226 32.7858 52.5174 33.6861 51.7171 34.0779C51.2086 34.328 50.275 34.528 50.0332 34.4363C49.9665 34.4113 49.9165 34.428 49.9165 34.4614C49.9165 34.503 49.9749 35.5117 50.0416 36.7038C50.1083 37.8958 50.3667 42.6224 50.6251 47.2073C50.8752 51.7921 51.1419 56.4604 51.2086 57.5857C51.342 59.8032 51.6171 64.6131 51.7838 67.5641C51.8338 68.5811 51.9005 69.4397 51.9255 69.4647C51.9589 69.4897 52.3673 69.3563 52.8425 69.1646C55.8185 67.9809 58.2776 67.3223 61.3787 66.8638C62.6374 66.6804 66.6138 66.6554 68.1309 66.8222C69.6648 66.9972 71.9572 67.3974 73.2243 67.7141C73.8495 67.8808 74.383 67.9892 74.408 67.9725C74.4247 67.9475 74.3247 65.5967 74.183 62.7375C74.0329 59.8782 73.8578 56.4937 73.7995 55.2099C73.7328 53.9262 73.5494 50.325 73.3827 47.2073C73.1076 41.8722 73.0076 39.9632 72.5908 32.0856C72.4991 30.3266 72.4407 28.8678 72.4657 28.8428C72.5741 28.7261 74.4747 30.3683 74.6831 30.7601C74.7832 30.9435 74.7665 30.7685 75.5918 42.0806C75.8669 45.8652 76.1503 49.7081 76.217 50.6251C76.4837 54.3013 76.9339 60.3367 77.0923 62.379C77.1756 63.5711 77.3423 65.8218 77.459 67.3807C77.5758 68.9395 77.7008 70.5317 77.7258 70.9235L77.7842 71.6238L78.0259 71.3403C78.1593 71.1819 78.6178 70.5401 79.0429 69.9232ZM11.2369 69.9899C11.5704 69.3563 11.8955 68.8395 11.9538 68.8395C12.0122 68.8395 12.5957 68.9562 13.2376 69.0896C13.8795 69.2313 14.463 69.3397 14.5297 69.3397C14.6131 69.3397 14.5797 69.198 14.388 68.7811C14.2546 68.4644 14.0962 68.1726 14.0462 68.1143C13.9462 68.0142 13.1126 67.8225 12.2956 67.7058C12.0789 67.6808 11.8872 67.6224 11.8621 67.5891C11.8371 67.5474 12.1789 67.3473 12.6124 67.1389C13.3793 66.7805 13.4043 66.7555 13.321 66.5554C13.2459 66.3553 12.9125 65.6634 12.8625 65.6051C12.8125 65.5467 8.65274 67.5641 8.65274 67.6474C8.65274 67.8392 9.11122 68.7561 9.21126 68.7561C9.26961 68.7561 9.66141 68.5894 10.0699 68.381C10.4867 68.1726 10.8201 68.0392 10.8201 68.0809C10.8201 68.1309 10.5784 68.5644 10.2783 69.0562C9.97818 69.5481 9.73643 69.9815 9.73643 70.0232C9.73643 70.0649 9.88648 70.3983 10.0782 70.7651C10.47 71.5571 10.3533 71.6404 11.2369 69.9899ZM89.163 70.5734C89.6381 70.3483 90.2133 69.6814 90.43 69.1063C90.5718 68.7395 90.6051 68.4977 90.5801 68.0476C90.5301 67.1056 90.1133 66.4804 89.2547 66.0469C88.0209 65.4217 86.7788 65.7051 86.0703 66.7805C85.1283 68.1893 85.5034 69.7315 86.9622 70.4734C87.7125 70.8652 88.4544 70.8985 89.163 70.5734ZM91.8472 65.5967C91.9472 65.3217 92.0139 65.0466 91.9972 64.9966C91.9806 64.9382 91.4554 64.7215 90.8302 64.5131C90.205 64.3046 89.6881 64.0963 89.6798 64.0462C89.6798 64.0046 90.3217 63.8212 91.1136 63.6544C91.8972 63.4794 92.5724 63.3127 92.6058 63.271C92.6891 63.1793 93.0393 62.0789 92.9976 62.0372C92.9642 62.0039 88.6128 60.5034 88.5544 60.5034C88.5378 60.5034 88.4377 60.7701 88.3377 61.0952C88.2126 61.5037 88.1793 61.7038 88.246 61.7371C88.296 61.7705 88.8379 61.9622 89.4631 62.1706C90.0883 62.379 90.5968 62.5707 90.5968 62.5957C90.5968 62.6208 89.9466 62.7875 89.163 62.9542C88.371 63.1293 87.6875 63.3043 87.6458 63.346C87.6041 63.3793 87.4791 63.6711 87.379 63.9795C87.229 64.4464 87.2123 64.5631 87.304 64.6214C87.4457 64.7215 91.3387 66.0636 91.5221 66.0802C91.6138 66.0886 91.7221 65.9302 91.8472 65.5967ZM10.8868 64.8798C11.7371 64.6048 12.3206 64.3713 12.3206 64.313C12.3206 64.1546 11.9788 63.1709 11.9288 63.1709C11.8955 63.1709 11.2286 63.3793 10.4283 63.6294C9.62806 63.8795 8.90282 64.0879 8.81946 64.0879C8.57771 64.0879 8.24427 63.7461 8.18591 63.446C8.09422 62.9709 8.41933 62.7541 9.99485 62.254C10.7451 62.0122 11.3953 61.7871 11.437 61.7455C11.5204 61.6704 11.1953 60.5034 11.0952 60.5034C11.0702 60.5034 10.37 60.7285 9.52803 61.0036C7.8358 61.5621 7.43566 61.7955 7.16057 62.354C6.67708 63.3543 7.27728 64.9382 8.27761 65.305C8.77778 65.4884 9.28628 65.405 10.8868 64.8798ZM39.8715 62.0039C42.2056 61.462 44.5647 59.7198 46.0569 57.4357C46.4737 56.8021 47.0656 55.6351 47.2073 55.1933L47.2573 55.0015H38.0376H28.8178L28.8678 55.1933C28.9845 55.5934 29.6764 56.9272 30.0432 57.469C31.1519 59.1029 32.6107 60.4117 34.2113 61.2286C36.1286 62.204 37.9208 62.4457 39.8715 62.0039ZM8.5527 58.336C8.86114 58.1443 8.98618 57.8858 8.98618 57.4023C8.98618 57.1189 8.93616 57.0106 8.66107 56.7438C8.37765 56.4604 8.29428 56.4187 7.94417 56.4187C7.59405 56.4187 7.51069 56.4604 7.22726 56.7438C6.95217 57.0106 6.90215 57.1189 6.90215 57.4107C6.90215 58.0859 7.29395 58.4944 7.94417 58.5027C8.1359 58.5027 8.39432 58.4277 8.5527 58.336ZM92.214 58.3277C93.0559 57.6691 92.6475 56.4187 91.5888 56.4187C90.5884 56.4187 90.1633 57.6358 90.9386 58.2943C91.272 58.5694 91.8889 58.5861 92.214 58.3277ZM9.81979 53.0926C9.81979 52.2673 9.82813 52.284 9.23627 52.0839L8.86114 51.9589V51.0919V50.225L9.25294 50.0916C9.46968 50.0165 9.66141 49.9415 9.67808 49.9165C9.70309 49.8915 9.69475 49.5331 9.66974 49.1079L9.61139 48.3493L8.77778 48.6661C8.31929 48.8412 7.16057 49.283 6.19358 49.6498L4.443 50.3167L4.41799 50.7168C4.40132 50.9419 4.40965 51.3503 4.443 51.6338L4.49302 52.1423L5.46834 52.4507C6.00185 52.6174 7.17725 52.9925 8.06921 53.2843C8.96117 53.5761 9.71976 53.8262 9.76144 53.8262C9.79479 53.8345 9.81979 53.501 9.81979 53.0926ZM32.0355 49.458C32.419 48.4077 33.4193 45.6484 34.2446 43.331C35.0782 41.0135 36.1453 38.0542 36.6204 36.7455C37.0872 35.4367 37.6541 33.8695 37.8708 33.261C38.0876 32.6524 38.2793 32.1689 38.296 32.1856C38.3377 32.2273 39.8882 36.6788 40.8718 39.5797C41.347 40.9802 42.1139 43.2143 42.5724 44.5397C43.0226 45.8735 43.8228 48.2076 44.348 49.7248C44.8648 51.2503 45.2983 52.4674 45.315 52.4257C45.34 52.3507 43.9895 47.8158 42.0222 41.4137C41.5387 39.8298 40.6968 37.0539 40.1466 35.2449C39.5964 33.436 39.1296 31.8855 39.1046 31.8105C39.0629 31.6688 39.2796 31.6604 42.9309 31.6604H46.8071L46.9072 32.0189C47.2823 33.2776 48.5911 34.1613 49.9165 34.0445C50.5751 33.9862 51.3337 33.6361 51.7671 33.1859C52.1256 32.8108 52.5007 32.1356 52.5007 31.8605C52.5007 31.6604 52.484 31.6604 51.6671 31.6604H50.8335V31.0769V30.4934H51.6671C52.6007 30.4934 52.5924 30.4934 52.334 29.9348C52.0922 29.3847 51.4837 28.7928 50.8918 28.526C50.45 28.326 50.2666 28.2926 49.6664 28.2926C49.0662 28.2843 48.8828 28.326 48.4577 28.5177C47.8325 28.8095 47.2323 29.4347 47.0156 30.0182L46.8488 30.4517H42.7808H38.7044L38.5377 29.9515C38.4377 29.6764 38.346 29.393 38.321 29.3263C38.296 29.2596 38.1876 29.4764 38.0709 29.8265L37.8708 30.4517L36.2036 30.4934L34.5364 30.535V31.0769V31.6187L35.9952 31.6604C36.8955 31.6854 37.4457 31.7354 37.4457 31.7855C37.4374 31.8355 37.1122 32.8608 36.7204 34.0779C36.3286 35.295 35.2866 38.5377 34.4113 41.2886C33.536 44.0396 32.4607 47.3823 32.0355 48.7078C31.0019 51.9255 30.5767 53.2843 30.5851 53.376C30.5851 53.426 30.7518 52.9925 30.9602 52.4174C31.1686 51.8422 31.6521 50.5167 32.0355 49.458ZM94.9315 51.9339V51.1919L93.4727 50.2166C92.6725 49.6748 91.9972 49.2079 91.9722 49.1746C91.9556 49.1413 92.6058 49.1246 93.4227 49.1496L94.9065 49.1913L94.9649 48.4994C94.9982 48.1242 94.9982 47.7825 94.9566 47.7491C94.9232 47.7158 93.7145 47.6658 92.289 47.6324L89.6798 47.5741V48.366V49.1496L91.1636 50.1333L92.6391 51.1253L91.1386 51.1669L89.6381 51.2086L89.6131 51.8922L89.5881 52.5757L89.9049 52.6091C90.0799 52.6258 91.2803 52.6424 92.5808 52.6508L94.9315 52.6674V51.9339ZM8.67775 47.6408C9.23627 47.3907 9.62806 46.9905 9.88648 46.4237C10.2449 45.6484 10.2116 44.2896 9.83647 44.0979C9.76144 44.0562 9.40299 43.9979 9.05287 43.9645L8.41099 43.9062L8.61106 44.2646C8.86948 44.7231 8.89448 45.34 8.65274 45.7318C8.40265 46.1403 8.02753 46.332 7.46067 46.332C6.06854 46.332 5.435 45.0566 6.32696 44.0396L6.57704 43.7561L6.38531 43.7144C6.27694 43.6894 5.93516 43.6561 5.61839 43.6478L5.0432 43.6227L4.82646 44.0396C4.54303 44.5731 4.48468 45.5317 4.69308 46.1569C5.1599 47.5741 7.18558 48.3243 8.67775 47.6408ZM92.6975 45.7485C93.8395 45.5817 94.7815 45.4233 94.7982 45.4067C94.8315 45.3733 94.6231 43.9979 94.5814 43.9479C94.5648 43.9312 94.1813 43.9812 93.7395 44.0479C93.2893 44.1229 92.8725 44.1646 92.8142 44.1396C92.7058 44.0979 92.4474 42.5391 92.5391 42.4474C92.5641 42.4223 92.9476 42.3473 93.406 42.2723C93.8562 42.2056 94.248 42.1222 94.273 42.0889C94.3647 41.9972 94.148 40.7218 94.0312 40.6801C93.9729 40.6634 93.4311 40.7301 92.8225 40.8218C92.214 40.9218 91.0886 41.0886 90.3133 41.2053C89.5381 41.3136 88.8962 41.422 88.8795 41.4303C88.8379 41.4804 89.0379 42.7891 89.0963 42.8558C89.1296 42.8975 89.5047 42.8642 89.9215 42.7975C90.3383 42.7224 90.7885 42.6641 90.9219 42.6641C91.1553 42.6641 91.1636 42.6891 91.247 43.1893C91.4387 44.3313 91.4471 44.4147 91.3554 44.4147C91.0886 44.4147 89.4631 44.6898 89.4047 44.7398C89.3464 44.7981 89.4547 45.7068 89.5631 46.0652C89.6048 46.2069 89.8215 46.1819 92.6975 45.7485ZM9.51136 42.7975C11.2036 41.9389 11.6037 39.5214 10.2616 38.2293C9.59472 37.5791 8.26094 37.2373 7.36064 37.4874C6.1519 37.8125 5.32663 39.1129 5.41832 40.53C5.51836 42.0556 6.79378 43.1226 8.44433 43.0559C8.89449 43.0392 9.13623 42.9809 9.51136 42.7975ZM90.9636 39.0796C92.2973 38.7044 93.4144 38.3793 93.4561 38.3377C93.5478 38.246 93.1726 36.9122 93.0559 36.9122C93.0059 36.9122 92.7725 36.9705 92.5474 37.0372C92.3223 37.0956 91.2386 37.404 90.1383 37.7041C89.0379 38.0042 88.1126 38.2793 88.0793 38.3126C87.9959 38.396 88.3627 39.7465 88.4627 39.7465C88.5044 39.7465 89.6298 39.4464 90.9636 39.0796ZM94.8482 38.496C95.0649 38.2793 95.0566 37.9959 94.8399 37.7124C94.5064 37.2873 93.8479 37.5374 93.8479 38.0959C93.8479 38.2376 93.9062 38.4293 93.9896 38.5127C94.173 38.7128 94.6315 38.7128 94.8482 38.496ZM12.4373 35.6284C12.8208 34.6614 13.1709 33.8612 13.2293 33.8445C13.2793 33.8278 13.4793 33.8695 13.6627 33.9445C13.8378 34.0195 14.0379 34.0779 14.0962 34.0779C14.1879 34.0779 14.5714 33.2276 14.5714 33.0192C14.5714 32.9692 14.1046 32.7441 13.5294 32.5107C12.4707 32.0856 12.4207 32.0772 12.2956 32.4357C12.2623 32.5107 12.1873 32.5774 12.1206 32.5774C12.0539 32.5774 11.412 32.3356 10.6784 32.0439C9.95317 31.7521 9.16124 31.427 8.91949 31.3353L8.48602 31.1603L8.26928 31.6437C7.85247 32.5691 7.77744 32.494 9.75311 33.2693C10.7034 33.6444 11.5204 33.9945 11.562 34.0362C11.6204 34.0946 11.5537 34.3447 11.3703 34.8115C11.2119 35.1949 11.0702 35.52 11.0452 35.5451C11.0285 35.5701 10.2033 35.2616 9.21959 34.8698C8.23593 34.478 7.39398 34.1613 7.34397 34.1613C7.2356 34.1613 6.79378 35.3033 6.8438 35.445C6.89382 35.5701 11.462 37.4207 11.6371 37.3873C11.7038 37.379 12.0622 36.5871 12.4373 35.6284ZM94.4314 37.0789C94.7898 36.7204 94.5231 36.0786 94.0146 36.0786C93.4977 36.0786 93.2477 36.6704 93.6144 37.0539C93.8395 37.2956 94.2063 37.304 94.4314 37.0789ZM89.4964 35.6034C90.3967 34.7865 91.3137 33.9529 91.5387 33.7444L91.9472 33.3693L91.6054 32.544C91.422 32.0939 91.2553 31.7104 91.2386 31.6938C91.197 31.6521 85.7535 31.9105 85.6701 31.9522C85.6368 31.9772 85.7368 32.3023 85.8869 32.6858L86.1703 33.3693L86.6871 33.411L87.2123 33.4527L87.5291 34.2446L87.8542 35.0365L87.5124 35.3283C87.329 35.4867 87.179 35.6701 87.179 35.7284C87.179 35.9118 87.6958 37.0789 87.7792 37.0789C87.8208 37.0789 88.5961 36.412 89.4964 35.6034ZM14.4213 31.277L14.7298 30.6934L13.1709 29.8515C10.6451 28.4844 10.1366 28.2343 10.0282 28.276C9.97818 28.2926 9.79479 28.5761 9.62806 28.8928L9.31963 29.4847L10.0032 29.8598C12.0455 30.9685 13.8795 31.9022 13.9879 31.8855C14.0545 31.8772 14.2546 31.6021 14.4213 31.277ZM15.355 29.493C15.5634 29.1763 15.7384 28.8678 15.7384 28.8178C15.7384 28.7678 15.6217 28.5761 15.48 28.401C15.3383 28.2259 15.2383 28.0425 15.2549 28.0009C15.2633 27.9675 15.4717 27.6424 15.6968 27.2923C16.1552 26.5921 16.1136 26.6004 16.9138 26.7921C17.1139 26.8338 17.1639 26.7838 17.5224 26.2336C17.7308 25.9002 17.9058 25.6084 17.9058 25.5834C17.9058 25.5417 12.7041 24.1579 12.554 24.1579C12.4874 24.1579 11.6787 25.325 11.6037 25.5334C11.5704 25.6167 12.1539 26.467 13.2043 27.8675C14.1129 29.0846 14.8798 30.0766 14.9132 30.0766C14.9382 30.0766 15.1382 29.8181 15.355 29.493ZM88.0376 29.6681C88.9462 29.2763 89.3797 28.3677 89.0879 27.484C89.0129 27.2673 87.8542 25.1666 87.7125 24.9999C87.6875 24.9749 83.3027 27.5257 83.1776 27.6341C83.1109 27.6924 83.7195 28.7678 83.8612 28.8595C83.9529 28.9178 84.1696 28.8345 84.6531 28.551C85.0199 28.3343 85.3367 28.1592 85.37 28.1592C85.395 28.1592 85.5034 28.301 85.6034 28.476C86.3537 29.7014 87.0956 30.0682 88.0376 29.6681ZM27.7841 28.526C30.335 26.9839 35.1032 25.3833 38.1209 25.0415C39.6298 24.8665 42.1473 24.7414 44.0312 24.7414C45.0149 24.7414 45.5067 24.7164 45.4484 24.6581C45.4067 24.6164 44.9149 24.4663 44.3647 24.333C41.1052 23.5244 37.4123 23.1326 34.8532 23.316C32.4273 23.4827 27.8925 24.3163 27.4423 24.6664C27.3923 24.7081 27.3256 25.2333 27.3006 25.9252C27.2673 26.5837 27.2173 27.5007 27.1923 27.9759C27.1589 28.4677 27.1673 28.8261 27.2089 28.8261C27.2506 28.8261 27.509 28.6928 27.7841 28.526ZM82.9609 25.4333C83.1359 24.7081 83.311 23.9745 83.3527 23.8078L83.436 23.491H85.0116C86.1119 23.491 86.5954 23.466 86.5954 23.3993C86.5954 23.3493 86.3787 23.0325 86.1203 22.6908L85.6368 22.0822L84.428 22.1239C83.7612 22.1489 83.1693 22.1823 83.1193 22.2073C82.8442 22.2823 83.0776 22.0322 83.8028 21.4403L84.5864 20.7985L84.203 20.315C83.9946 20.0399 83.7695 19.7815 83.7111 19.7314C83.6361 19.6647 83.3443 19.8565 82.5357 20.4984C81.277 21.4987 79.7682 22.7241 79.6014 22.8742C79.5014 22.9658 79.5598 23.0742 79.9599 23.5744C80.3934 24.1079 80.4601 24.1579 80.5768 24.0495C81.4437 23.3243 82.0272 22.8908 82.0689 22.9408C82.0939 22.9658 81.9606 23.516 81.7688 24.1579C81.5688 24.8081 81.4437 25.3666 81.4771 25.425C81.6104 25.6584 82.5274 26.7421 82.5858 26.7421C82.6191 26.7421 82.7858 26.1502 82.9609 25.4333ZM19.1729 24.1746C19.6481 23.6411 20.2233 22.9992 20.4567 22.7491L20.8818 22.2823L21.282 22.6157L21.6821 22.9408L22.0989 22.4907L22.5074 22.0322L21.6821 21.2653C21.2319 20.8401 20.8318 20.49 20.7901 20.49C20.7401 20.49 20.6234 20.5734 20.515 20.6651L20.3316 20.8485L20.0565 20.6317C19.9065 20.515 19.2396 19.9315 18.5727 19.3313C17.9058 18.7311 17.339 18.2393 17.3056 18.2393C17.2306 18.2393 16.4053 19.2396 16.4053 19.323C16.4053 19.3646 16.8471 19.7815 17.3807 20.2566C17.9225 20.7318 18.5811 21.3236 18.8478 21.5737L19.3313 22.0322L18.8228 22.6157C18.5394 22.9408 18.2893 23.2076 18.2559 23.2243C18.2226 23.2326 17.5474 22.6574 16.7554 21.9488C15.9635 21.2403 15.28 20.6567 15.2383 20.6567C15.1216 20.6567 14.313 21.6071 14.338 21.7154C14.3713 21.8655 18.1726 25.2416 18.2559 25.1916C18.2893 25.1666 18.7061 24.7081 19.1729 24.1746ZM46.9989 21.6737C47.5157 21.4237 47.5824 21.1569 47.5824 19.4313V17.9058H47.0906H46.5904L46.5654 19.323C46.5404 20.8818 46.4904 21.0319 46.0986 20.7734C45.9152 20.6567 45.8818 20.6567 45.6151 20.8401C45.1733 21.1402 45.2733 21.4153 45.9152 21.6904C46.307 21.8571 46.6488 21.8571 46.9989 21.6737ZM22.8658 20.365L23.3576 19.9148L23.1492 19.6814C23.0325 19.5564 22.2323 18.6727 21.3737 17.7224C20.5067 16.7638 19.7898 15.9885 19.7648 15.9885C19.6564 15.9885 18.7394 16.8805 18.7561 16.9638C18.7978 17.1306 22.1656 20.8235 22.274 20.8235C22.324 20.8151 22.5907 20.6151 22.8658 20.365ZM78.7261 19.9982C79.5931 19.6397 80.4767 19.2729 80.6851 19.1729C80.8935 19.0729 81.252 18.9228 81.4771 18.8311C81.7021 18.7478 82.0356 18.6061 82.219 18.531L82.5524 18.3893L81.9355 17.8225L81.3187 17.2556L80.3183 17.7474C79.7765 18.0225 79.3097 18.2309 79.2847 18.2059C79.2597 18.1893 79.4014 17.6891 79.5848 17.1056C79.7765 16.522 79.9265 16.0219 79.9265 15.9969C79.9265 15.9052 78.6678 14.7965 78.6261 14.8465C78.6011 14.8715 78.3594 15.7301 78.0843 16.7554C77.8175 17.7808 77.5591 18.6894 77.5174 18.7895C77.4674 18.9062 77.2006 19.0562 76.7421 19.2396C76.367 19.3897 76.0336 19.5314 76.0086 19.5564C75.9752 19.5814 77.0839 20.6484 77.1423 20.6567C77.1506 20.6567 77.8675 20.365 78.7261 19.9982ZM24.4997 18.8978C24.8498 18.6394 25.0749 18.4143 25.0749 18.3143C25.0749 18.2309 25.0332 17.7891 24.9832 17.3306C24.9332 16.8638 24.9082 16.447 24.9248 16.3887C24.9415 16.3386 25.1916 16.5971 25.4834 16.9722C25.7668 17.3473 26.0335 17.6557 26.0752 17.6557C26.1919 17.6557 27.1589 16.8888 27.1589 16.8055C27.1589 16.7554 26.9922 16.5137 26.7921 16.2553C26.5921 15.9885 25.9168 15.0882 25.2833 14.2379C24.6497 13.3877 24.1079 12.6624 24.0746 12.6291C24.0495 12.5957 23.5327 12.9375 22.9325 13.396C21.7404 14.313 21.4904 14.6381 21.4904 15.305C21.4904 15.9468 21.9322 16.6554 22.5157 16.9555C22.7658 17.0889 23.266 17.1306 23.5494 17.0389C23.6911 16.9889 23.7244 17.0305 23.7745 17.2973C23.7995 17.4723 23.8245 17.9975 23.8245 18.4727C23.8245 18.9395 23.8495 19.323 23.8745 19.323C23.9078 19.323 24.1829 19.1312 24.4997 18.8978ZM72.6491 16.2303C73.416 15.9468 73.8245 14.9048 73.4244 14.2546C73.3327 14.1046 73.2576 13.9712 73.2576 13.9545C73.2576 13.9378 73.3994 13.9045 73.5744 13.8711C74.1996 13.7711 74.5914 13.2793 74.5914 12.5957C74.5914 11.9122 74.4164 11.7371 72.6908 10.6784C72.0989 10.3116 71.6321 10.0782 71.5904 10.1199C71.5154 10.1949 71.0569 10.9368 69.6564 13.2626C69.2396 13.9378 68.9229 14.5464 68.9479 14.5964C68.9979 14.7214 71.257 16.0886 71.6321 16.2219C71.9655 16.3386 72.3573 16.3386 72.6491 16.2303ZM31.0769 14.5297C31.402 14.3713 31.6604 14.2046 31.6604 14.1629C31.6604 14.1296 31.4687 13.6878 31.2353 13.1876C31.0019 12.6874 30.6434 11.9288 30.4433 11.5037C30.2433 11.0702 30.0766 10.6784 30.0766 10.6201C30.0766 10.52 31.2436 9.90315 31.4353 9.90315C31.4937 9.90315 31.9272 10.7118 32.4023 11.6871L33.2693 13.4793L33.9195 13.1459C34.3863 12.9208 34.5614 12.7874 34.528 12.7041C34.503 12.6374 34.2696 12.1372 34.0029 11.5954C33.7444 11.0535 33.2693 10.0532 32.9525 9.37798C32.6274 8.69442 32.3273 8.11923 32.2773 8.09422C32.2189 8.07755 31.4353 8.41932 30.5267 8.86948C29.6097 9.31129 28.7094 9.74477 28.5177 9.82813C28.3176 9.91149 28.1593 10.0199 28.1593 10.0615C28.1593 10.2866 30.3433 14.8215 30.46 14.8215C30.4767 14.8215 30.7601 14.6881 31.0769 14.5297ZM69.0229 11.6954L70.1566 9.31963L69.5564 9.02786C69.223 8.86948 68.9145 8.7361 68.8728 8.7361C68.7978 8.7361 66.6471 13.1459 66.6054 13.3877C66.5888 13.4877 66.7305 13.6044 67.1056 13.7961C67.3974 13.9462 67.6891 14.0629 67.7641 14.0629C67.8558 14.0712 68.2393 13.3543 69.0229 11.6954ZM66.0052 13.1126C66.0052 13.0959 65.7968 12.354 65.5384 11.4703C65.28 10.5867 65.0966 9.86147 65.1383 9.8448C65.3217 9.77811 67.6224 8.2526 67.6474 8.17758C67.6725 8.10255 66.3804 7.56904 66.1886 7.56904C66.1553 7.56904 65.6801 7.88581 65.1299 8.27761C64.5798 8.66941 64.1213 8.9445 64.1046 8.90282C64.0879 8.86114 64.213 8.46101 64.3713 8.01919C64.5381 7.56904 64.6714 7.16057 64.6714 7.10222C64.6714 6.96884 63.4377 6.51869 63.3377 6.61872C63.2126 6.74377 61.5704 11.4037 61.6121 11.512C61.6704 11.6621 62.8208 12.0372 62.9125 11.9455C62.9459 11.8955 63.1043 11.512 63.2543 11.0952C63.6795 9.87815 63.6795 9.87815 63.9962 11.2536C64.1463 11.9038 64.3047 12.4873 64.3547 12.529C64.4214 12.6041 65.7968 13.1376 65.9469 13.1459C65.9802 13.1542 66.0052 13.1376 66.0052 13.1126ZM36.1786 12.2706C36.5371 12.1539 36.8288 12.0289 36.8288 11.9955C36.8288 11.9622 36.7204 11.6037 36.5787 11.1953C36.4454 10.7868 36.3286 10.4367 36.3286 10.4117C36.3286 10.3783 36.5454 10.2783 36.8121 10.1699C37.5374 9.89482 38.0292 9.55304 38.1876 9.21126C38.5127 8.53603 38.2376 7.41066 37.6458 6.95217C37.3373 6.71876 36.7288 6.56871 36.3537 6.62706C35.8868 6.70209 33.8278 7.41899 33.8278 7.50235C33.8278 7.64407 35.445 12.4873 35.495 12.4873C35.52 12.4873 35.8285 12.3873 36.1786 12.2706ZM60.6701 11.2119C60.6701 11.1953 60.9119 10.0449 61.212 8.65274C61.5121 7.2606 61.7288 6.10189 61.6955 6.06854C61.6621 6.02686 61.3537 5.9435 61.0119 5.86847L60.3867 5.72676L59.1196 6.99385C58.411 7.69408 57.8275 8.2526 57.8108 8.23593C57.7942 8.21092 57.9109 7.56904 58.0859 6.79378C58.2943 5.81846 58.361 5.37664 58.3027 5.32663C58.2526 5.28495 57.9525 5.20992 57.6441 5.14323C57.2023 5.05987 57.0606 5.05987 57.0106 5.1349C56.9189 5.27661 55.9019 10.1616 55.9435 10.2116C55.9685 10.2283 56.2937 10.32 56.6688 10.395L57.344 10.545L58.5861 9.25294C59.278 8.54437 59.8365 8.01086 59.8365 8.07755C59.8365 8.14423 59.7031 8.81112 59.5447 9.56137C59.3863 10.32 59.2696 10.9452 59.278 10.9618C59.378 11.0535 60.6701 11.2869 60.6701 11.2119ZM40.5801 10.9368C40.9802 10.8618 41.0802 10.7618 41.0802 10.4533C41.0802 9.88648 41.1052 9.86981 42.0055 9.70309C42.9392 9.53636 42.9392 9.53636 43.1726 10.0949C43.2393 10.2616 43.3227 10.32 43.4894 10.32C43.7311 10.3116 44.7398 10.1116 44.7981 10.0532C44.8148 10.0282 44.2146 8.9445 43.4644 7.64407C42.3307 5.68508 42.0639 5.27661 41.8972 5.25994C41.7971 5.24327 41.3887 5.30162 40.9969 5.38498L40.2883 5.52669L40.0215 7.444C39.8715 8.50269 39.6964 9.73643 39.6298 10.1949C39.5631 10.6451 39.5214 11.0452 39.5381 11.0785C39.5631 11.1036 39.7381 11.0952 39.9299 11.0619C40.1299 11.0202 40.4217 10.9618 40.5801 10.9368ZM47.6824 9.90315C48.9995 9.78645 49.5414 9.35297 49.5414 8.40265C49.5414 7.81913 49.3163 7.41899 48.8745 7.19392C48.6911 7.10222 48.5244 7.01886 48.4994 7.00219C48.4744 6.98551 48.5327 6.91882 48.6161 6.85214C48.9245 6.6354 49.0829 6.29362 49.0829 5.86014C49.0829 5.29328 48.8578 4.93483 48.3577 4.71809C47.9825 4.55137 47.9075 4.55137 46.507 4.63473C45.7068 4.68475 45.0232 4.75977 44.9982 4.79311C44.9399 4.8598 45.215 9.76144 45.29 9.96151C45.3233 10.0699 45.8735 10.0615 47.6824 9.90315ZM55.0266 9.51136C55.2183 7.43566 55.3517 4.88481 55.285 4.81812C55.1933 4.72643 54.0679 4.68475 53.9345 4.76811C53.8762 4.80145 53.8345 4.99318 53.8345 5.18491C53.8345 5.38498 53.8095 5.77678 53.7761 6.06854L53.7261 6.59372L52.9342 6.53536C52.5007 6.50202 52.1173 6.46867 52.0922 6.44367C52.0589 6.42699 52.0672 6.01019 52.1006 5.51836C52.1339 5.01819 52.1506 4.60138 52.1339 4.59305C52.1173 4.57638 51.7838 4.54303 51.4003 4.50969L50.6918 4.45967L50.6418 4.9515C50.5417 5.91015 50.3 9.73643 50.3417 9.76978C50.3583 9.78645 50.6918 9.81979 51.0836 9.82813L51.7921 9.86147L51.8588 8.90282C51.8922 8.37764 51.9339 7.90249 51.9589 7.85247C51.9839 7.76077 52.7341 7.76911 53.401 7.86914L53.6761 7.91082L53.6261 8.5527C53.6011 8.90282 53.5594 9.36964 53.5344 9.58638C53.4927 10.0449 53.5011 10.0449 54.3847 10.0615L54.9765 10.0699L55.0266 9.51136Z" fill="#FABC68"/>
<path d="M49.5329 92.6642C49.5579 92.5225 49.6663 92.139 49.758 91.8139L49.9331 91.222L50.1748 92.014C50.3082 92.4475 50.4166 92.8309 50.4166 92.8726C50.4166 92.9059 50.2082 92.9309 49.9497 92.9309H49.4829L49.5329 92.6642Z" fill="#FABC68"/>
<path d="M54.8098 91.7889C54.7847 91.7472 54.7597 91.5138 54.7431 91.2637C54.7097 90.8386 54.7264 90.8052 54.9098 90.7802C55.2599 90.7302 55.485 90.8386 55.5767 91.1053C55.6767 91.3971 55.5933 91.6222 55.3349 91.7639C55.1515 91.8639 54.8598 91.8722 54.8098 91.7889Z" fill="#FABC68"/>
<path d="M43.973 93.4561C43.8563 93.4228 43.8396 93.3561 43.8813 93.0726C43.9647 92.4891 43.9563 92.4974 44.3898 92.5641C44.6149 92.5891 44.8566 92.6475 44.9317 92.6892C45.1484 92.8059 45.1984 93.081 45.0484 93.306C44.9317 93.4811 44.8483 93.5144 44.5149 93.5061C44.2981 93.4978 44.0564 93.4811 43.973 93.4561Z" fill="#FABC68"/>
<path d="M44.1228 91.5138C44.0978 91.4638 44.0978 91.2637 44.1311 91.0553C44.1812 90.7135 44.2062 90.6802 44.4146 90.6802C44.7647 90.6802 45.1648 90.8469 45.1815 90.9969C45.2065 91.272 45.1565 91.4638 45.0565 91.5305C44.9064 91.6222 44.1812 91.6138 44.1228 91.5138Z" fill="#FABC68"/>
<path d="M62.3373 90.7302C62.3373 90.5802 62.3123 90.2217 62.2873 89.9383C62.2456 89.5882 62.2623 89.4298 62.3207 89.4298C62.4124 89.4298 63.296 90.6719 63.2376 90.7136C63.2126 90.7386 62.404 91.0137 62.3623 91.0137C62.3457 91.0137 62.3373 90.8886 62.3373 90.7302Z" fill="#FABC68"/>
<path d="M30.4768 88.3711L30.085 88.1543L30.6351 87.5375C30.9352 87.204 31.202 86.9372 31.2187 86.9623C31.2353 86.9789 31.1937 87.329 31.127 87.7292C31.052 88.1377 30.9936 88.4961 30.9936 88.5378C30.9936 88.6378 30.8936 88.6045 30.4768 88.3711Z" fill="#FABC68"/>
<path d="M73.6244 86.062C73.1242 85.8369 72.6741 85.17 72.6741 84.6365C72.6741 83.6362 73.7828 83.1943 74.533 83.9029C75.2833 84.6198 75.2749 85.6202 74.508 86.012C74.1246 86.2037 73.9828 86.212 73.6244 86.062Z" fill="#FABC68"/>
<path d="M51.4586 80.3268C50.7917 80.0934 50.4166 79.4181 50.3499 78.3428C50.3082 77.5175 50.4333 76.8006 50.6917 76.4088C51.4336 75.3168 53.0425 75.5335 53.476 76.7839C53.701 77.4508 53.676 78.8263 53.4176 79.4098C53.0592 80.2351 52.2672 80.6102 51.4586 80.3268ZM52.3756 79.1764C52.459 79.0097 52.5006 78.6845 52.5006 78.101C52.5006 76.9923 52.3756 76.6839 51.9421 76.6755C51.6253 76.6755 51.5003 77.0507 51.5003 78.051C51.5003 79.1097 51.617 79.4265 52.0005 79.4265C52.1922 79.4265 52.2756 79.3681 52.3756 79.1764Z" fill="#FABC68"/>
<path d="M55.1767 79.4931C56.6439 77.8259 56.994 77.1673 56.5939 76.8088C56.2604 76.5087 55.8853 76.7088 55.7186 77.284C55.6852 77.4007 55.5769 77.4257 55.1684 77.4257C54.7016 77.4257 54.6682 77.4174 54.6682 77.2256C54.6682 76.9589 54.8349 76.5087 55.0267 76.2503C55.4018 75.7335 56.4688 75.5501 57.1274 75.8919C57.6109 76.142 57.7776 76.4254 57.8193 77.0339C57.861 77.6675 57.6942 78.0509 57.069 78.7762L56.6606 79.2513L57.2274 79.2763L57.7943 79.3013L57.8193 79.7848L57.8443 80.26H56.1687H54.4932L55.1767 79.4931Z" fill="#FABC68"/>
<path d="M16.8304 77.5008C16.6803 77.3174 16.5719 77.1506 16.5886 77.134C16.6636 77.0589 18.0141 76.5088 18.0474 76.5421C18.0974 76.5921 17.2472 77.8425 17.1638 77.8425C17.1305 77.8425 16.9804 77.6925 16.8304 77.5008Z" fill="#FABC68"/>
<path d="M81.8438 77.2006C81.6104 76.8505 81.4437 76.5504 81.4604 76.5337C81.5021 76.4837 82.9275 77.1089 82.9275 77.1673C82.9275 77.259 82.419 77.8425 82.3357 77.8425C82.294 77.8425 82.0689 77.5591 81.8438 77.2006Z" fill="#FABC68"/>
<path d="M47.3657 79.2513C47.2239 79.1013 47.2073 78.9512 47.2073 78.0509C47.2073 77.159 47.2239 77.0006 47.3657 76.8505C47.6074 76.5838 47.8825 76.6254 48.0492 76.9506C48.241 77.309 48.2576 78.7678 48.0742 79.1346C47.9242 79.4514 47.5991 79.5097 47.3657 79.2513Z" fill="#FABC68"/>
<path d="M14.3296 72.7909C14.2296 72.6658 14.1545 72.5241 14.1545 72.4741C14.1545 72.4241 14.3296 72.274 14.538 72.1406L14.9298 71.8906L15.0798 72.0823C15.2966 72.3491 15.2799 72.7158 15.0548 72.8742C14.7797 73.066 14.5213 73.0326 14.3296 72.7909Z" fill="#FABC68"/>
<path d="M61.7121 62.1706C60.495 62.0373 59.3196 61.6121 58.0025 60.8452C57.3773 60.4784 56.9855 60.1533 56.1269 59.2947C55.4683 58.6445 54.8598 57.9442 54.593 57.5441C54.1762 56.9106 53.4927 55.5851 53.3759 55.1933L53.3259 55.0016H62.5457H71.7654L71.7154 55.1933C71.5904 55.6351 70.8068 57.1106 70.365 57.7275C68.1642 60.8035 64.8298 62.5124 61.7121 62.1706ZM60.8284 60.9036C60.1782 60.0033 59.1862 58.0193 58.8444 56.9106C58.6944 56.4354 58.536 55.9602 58.4943 55.8602C58.4276 55.6685 58.4026 55.6685 56.7854 55.6685C54.8764 55.6685 54.9848 55.5684 55.6434 56.7188C56.4103 58.0693 57.644 59.5781 58.611 60.3534C59.1529 60.7785 59.9948 61.2453 60.57 61.4287C61.3703 61.6788 61.3786 61.6538 60.8284 60.9036Z" fill="#FABC68"/>
<path d="M71.8405 28.4344C71.1153 27.9759 68.9729 26.9589 67.8809 26.5504C66.6221 26.0836 64.5298 25.4584 63.3627 25.2C61.8789 24.8665 59.2697 24.6665 56.4604 24.6498C54.7598 24.6498 54.293 24.5831 54.8765 24.4247C58.1693 23.5411 60.5368 23.2076 63.5878 23.2076C65.9719 23.2076 66.2887 23.2493 69.8816 23.9496C70.9486 24.1663 71.9573 24.4331 72.1406 24.5498C72.2157 24.6081 72.4324 27.6008 72.4241 28.5594C72.4241 28.7928 72.3907 28.7845 71.8405 28.4344Z" fill="#FABC68"/>
<path d="M49.833 21.3736C49.833 20.9985 49.8664 20.8902 49.9831 20.8485C50.3999 20.6984 50.4165 20.6234 50.4165 19.2229V17.9058H50.9584H51.5002V19.2729C51.5002 20.0399 51.4586 20.7484 51.4085 20.8818C51.2251 21.3653 50.8 21.6737 50.1915 21.7821L49.833 21.8405V21.3736Z" fill="#FABC68"/>
<path d="M52.7424 21.7321C52.5757 21.6821 52.309 21.5404 52.1589 21.4154L51.8755 21.182L52.0422 20.8735C52.2923 20.4067 52.3506 20.39 52.6924 20.6318C53.1342 20.9402 53.6594 20.9069 53.6678 20.5568C53.6678 20.4234 53.376 20.2316 52.9092 20.0649C52.2506 19.8232 52.0839 19.6064 52.0839 18.9896C52.0839 18.4561 52.2506 18.1643 52.6674 17.9476C53.0009 17.7725 53.7178 17.7975 54.1512 17.9892L54.5097 18.1476L54.3763 18.4644C54.1929 18.9062 54.1429 18.9312 53.8178 18.7728C53.4594 18.6061 53.0842 18.6645 53.0842 18.8979C53.0842 19.0813 53.2093 19.198 53.501 19.2813C54.3513 19.5397 54.6681 19.8899 54.6681 20.5734C54.6681 21.4571 53.7344 22.0072 52.7424 21.7321Z" fill="#FABC68"/>
<path d="M87.6375 69.2897C86.7705 68.8145 86.5371 68.056 87.0623 67.4224C87.3791 67.0556 87.8042 66.9473 88.3294 67.1223C88.7962 67.2807 89.3047 67.7642 89.3964 68.1393C89.4714 68.4394 89.3047 68.9312 89.0546 69.173C88.7795 69.4314 88.0126 69.4981 87.6375 69.2897Z" fill="#FABC68"/>
<path d="M39.7049 60.9953C40.3217 60.1784 41.4638 57.8693 41.8639 56.6522L42.1807 55.6685H43.7979C44.8482 55.6685 45.4151 55.7019 45.4151 55.7519C45.4151 55.9269 44.9066 56.8356 44.3397 57.6775C42.8893 59.8366 41.1303 61.2621 39.5548 61.5455L39.238 61.6038L39.7049 60.9953Z" fill="#FABC68"/>
<path d="M6.66871 51.4587C5.99348 51.267 5.8351 51.2003 5.91012 51.1336C5.96014 51.0919 7.51066 50.5834 7.59402 50.5834C7.62736 50.5834 7.65237 50.8252 7.65237 51.1253C7.65237 51.7588 7.69405 51.7505 6.66871 51.4587Z" fill="#FABC68"/>
<path d="M8.11081 41.5304C7.21051 41.322 6.73535 40.8468 6.73535 40.1633C6.73535 39.413 7.24385 38.9545 8.06913 38.9545C8.60264 38.9545 9.26119 39.2463 9.50294 39.5797C9.87807 40.0966 9.72802 41.0052 9.21118 41.322C8.92775 41.4887 8.39424 41.5887 8.11081 41.5304Z" fill="#FABC68"/>
<path d="M88.6128 33.7695C88.5044 33.5111 88.4544 33.2777 88.4878 33.236C88.5211 33.2026 88.9462 33.1526 89.4297 33.1193C90.1967 33.0693 90.2884 33.0776 90.18 33.1776C89.9049 33.4527 88.9212 34.2447 88.8629 34.2447C88.8295 34.2447 88.7212 34.0362 88.6128 33.7695Z" fill="#FABC68"/>
<path d="M13.896 26.5588C13.6543 26.267 13.3959 25.9669 13.3292 25.8835C13.2625 25.8085 13.2291 25.7168 13.2542 25.7001C13.3292 25.6251 14.9047 26.1586 14.9047 26.2503C14.9047 26.3337 14.4212 27.0756 14.3712 27.0756C14.3545 27.0756 14.1378 26.8422 13.896 26.5588Z" fill="#FABC68"/>
<path d="M86.7871 28.0592C86.6954 27.9509 86.5787 27.7841 86.5203 27.6924C86.4203 27.484 86.4286 27.4757 87.0288 27.1256L87.429 26.9005L87.5957 27.1756C87.8208 27.5507 87.8124 27.9509 87.579 28.1092C87.3123 28.301 86.9872 28.276 86.7871 28.0592Z" fill="#FABC68"/>
<path d="M23.0825 15.6051C22.9825 15.4801 22.9075 15.305 22.9075 15.205C22.9075 15.0216 23.3826 14.4881 23.5494 14.4881C23.5994 14.4881 23.7828 14.6965 23.9578 14.9549L24.2829 15.4217L24.0328 15.6218C23.6911 15.8969 23.3076 15.8886 23.0825 15.6051Z" fill="#FABC68"/>
<path d="M71.2318 14.7715C71.0151 14.6548 70.815 14.5131 70.79 14.4464C70.7233 14.288 71.1818 13.5628 71.3152 13.6044C71.607 13.7212 72.1071 14.1046 72.1905 14.288C72.2739 14.4547 72.2572 14.5298 72.1155 14.7215C71.8987 15.0133 71.7153 15.0299 71.2318 14.7715Z" fill="#FABC68"/>
<path d="M72.2407 12.8458C72.0156 12.7291 71.8406 12.6041 71.8406 12.5791C71.8489 12.4374 72.2407 11.8622 72.3491 11.8372C72.4158 11.8288 72.6325 11.9289 72.8242 12.0706C73.241 12.3707 73.3077 12.7208 72.991 12.9375C72.7492 13.1126 72.6992 13.1042 72.2407 12.8458Z" fill="#FABC68"/>
<path d="M35.77 8.71948C35.5699 8.1026 35.62 7.99423 36.1368 7.92754C36.4286 7.88586 36.4953 7.91087 36.6453 8.11094C36.9704 8.52774 36.8537 8.89453 36.3285 9.10294C36.1451 9.17796 35.9784 9.23631 35.9617 9.23631C35.9451 9.23631 35.8617 9.0029 35.77 8.71948Z" fill="#FABC68"/>
<path d="M41.2803 8.5527C41.2137 8.44433 41.3387 6.91048 41.4221 6.86047C41.4888 6.81879 42.3474 8.32762 42.289 8.38598C42.2057 8.46934 41.322 8.61939 41.2803 8.5527Z" fill="#FABC68"/>
<path d="M46.7154 8.83617C46.6988 8.80283 46.6654 8.56942 46.6571 8.31934L46.6321 7.86085L47.0656 7.78582C47.5824 7.70246 47.8742 7.79416 48.0159 8.1026C48.1409 8.39436 47.9325 8.7028 47.524 8.81117C47.1489 8.91954 46.7738 8.92787 46.7154 8.83617Z" fill="#FABC68"/>
<path d="M46.5571 6.67709C46.5238 6.65208 46.4988 6.42701 46.4988 6.17692V5.73511H47.0406C47.5408 5.73511 47.5908 5.75178 47.6742 5.93517C47.8326 6.27696 47.7075 6.55205 47.3491 6.64374C46.9989 6.74378 46.6322 6.76045 46.5571 6.67709Z" fill="#FABC68"/>
</svg>
