<svg width="46" height="46" viewBox="0 0 46 46" fill="none" xmlns="http://www.w3.org/2000/svg">
<g clip-path="url(#clip0)">
<path d="M43.0688 0H2.93769C1.31466 0 0 1.31466 0 2.93444V43.0656C0 44.6853 1.31466 46 2.93769 46H43.0656C44.6853 46 46 44.6853 46 43.0656V2.93444C46.0032 1.31141 44.6886 0 43.0688 0ZM38.1575 28.0298C38.9982 28.8867 40.8225 30.3248 40.4914 31.7887C40.1863 33.1326 38.1802 32.6424 36.2326 32.7203C34.009 32.8145 32.6911 32.8632 31.3538 31.7887C30.724 31.2791 30.354 30.6753 29.7502 30.0001C29.2016 29.3899 28.5102 28.296 27.5688 28.3382C25.8776 28.4226 26.4067 30.7792 25.8062 32.386C16.4056 33.8662 12.6304 28.059 9.29998 22.4238C7.68668 19.6939 5.35601 13.8315 5.35601 13.8315L12.004 13.8088C12.004 13.8088 14.1366 17.6878 14.7014 18.6876C15.1818 19.5381 15.711 20.2133 16.2563 20.9728C16.714 21.6026 17.4379 22.8361 18.2299 22.7354C19.5186 22.5699 19.7523 17.571 18.9538 15.896C18.6357 15.2176 17.8728 14.9806 17.084 14.7501C17.3502 13.0687 24.5403 12.7181 25.7024 14.023C27.3903 15.9187 24.5338 21.1968 26.845 22.7354C30.091 21.0345 32.8632 13.9126 32.8632 13.9126L40.6472 13.9613C40.6472 13.9613 39.43 17.8112 38.1543 19.5186C37.4109 20.5184 34.9439 22.7452 35.0413 24.3974C35.1192 25.7056 37.1253 26.9781 38.1575 28.0298Z" fill="#FABC68"/>
</g>
<defs>
<clipPath id="clip0">
<rect width="46" height="46" fill="white"/>
</clipPath>
</defs>
</svg>
